<svg xmlns="http://www.w3.org/2000/svg" xmlns:xlink="http://www.w3.org/1999/xlink" version="1.1" style="shape-rendering:geometricPrecision; text-rendering:geometricPrecision; image-rendering:optimizeQuality; fill-rule:evenodd; clip-rule:evenodd" viewBox="26.43 22.92 254.37 247.61">
<g><path style="opacity:1" fill="#5f5f5f" d="M 191.5,29.5 C 190.766,30.7079 190.433,32.0413 190.5,33.5C 189.5,33.5 188.5,33.5 187.5,33.5C 188.502,36.1096 188.335,38.7763 187,41.5C 185.185,43.1002 184.018,45.1002 183.5,47.5C 182.624,48.2508 181.624,48.7508 180.5,49C 181.167,50 181.833,51 182.5,52C 179.631,54.7717 179.298,57.605 181.5,60.5C 181.137,61.1835 180.804,61.8501 180.5,62.5C 168.448,65.7186 159.948,73.052 155,84.5C 154.182,87.2272 154.348,89.8938 155.5,92.5C 158.603,90.6876 161.936,89.6876 165.5,89.5C 165.913,91.8901 166.579,94.2235 167.5,96.5C 166.956,94.9045 167.623,93.5712 169.5,92.5C 169.862,96.2592 171.195,99.5925 173.5,102.5C 171.488,101.986 169.488,101.82 167.5,102C 167.201,103.32 167.034,104.82 167,106.5C 166.667,106.167 166.333,105.833 166,105.5C 164.048,106.747 162.215,108.081 160.5,109.5C 159.952,108.312 159.619,107.145 159.5,106C 161.394,104.899 162.061,103.566 161.5,102C 160.5,100 159.5,100 158.5,102C 158.833,102.333 159.167,102.667 159.5,103C 158.773,104.399 158.273,105.899 158,107.5C 156.374,107.146 154.541,107.146 152.5,107.5C 152.5,106.5 152.5,105.5 152.5,104.5C 149.753,104.813 147.086,104.48 144.5,103.5C 144.709,102.914 145.043,102.414 145.5,102C 144.167,101 142.833,100 141.5,99C 144.511,97.1316 145.178,94.6316 143.5,91.5C 144.583,91.5394 145.583,91.8728 146.5,92.5C 148.182,86.9412 147.182,81.9412 143.5,77.5C 145.303,76.9536 146.97,76.1203 148.5,75C 144.569,73.5739 144.569,72.4072 148.5,71.5C 150.035,72.7879 151.701,72.7879 153.5,71.5C 150.84,68.4685 151.507,67.8018 155.5,69.5C 160.755,67.6314 160.755,66.7981 155.5,67C 160.102,64.2169 160.102,62.7169 155.5,62.5C 154.833,60.5 154.167,58.5 153.5,56.5C 154.873,56.6567 156.207,56.49 157.5,56C 155.699,55.6827 155.366,55.016 156.5,54C 152.993,54.0808 149.326,53.7474 145.5,53C 147.658,51.6883 147.991,50.0217 146.5,48C 150.361,47.4309 150.361,46.5976 146.5,45.5C 147.529,45.7036 148.529,45.2036 149.5,44C 148.1,42.5619 146.433,41.7286 144.5,41.5C 144.649,40.448 144.483,39.448 144,38.5C 141.695,41.6095 139.195,41.9429 136.5,39.5C 135.817,39.8627 135.15,40.1961 134.5,40.5C 131.308,39.5791 127.975,39.4124 124.5,40C 124.616,38.7318 124.949,37.3985 125.5,36C 124.167,35 122.833,34 121.5,33C 123.878,32.0255 123.544,31.3589 120.5,31C 123.363,29.6011 126.363,28.6011 129.5,28C 126.639,28.0302 124.305,27.1969 122.5,25.5C 145.854,21.0299 168.854,22.3632 191.5,29.5 Z"/></g>
<g><path style="opacity:0.987" fill="#767676" d="M 191.5,29.5 C 200.697,32.1034 209.363,35.7701 217.5,40.5C 217.986,43.7553 216.986,46.422 214.5,48.5C 215.025,49.1924 215.692,49.6924 216.5,50C 215.167,50.6667 213.833,51.3333 212.5,52C 213.167,52.3333 213.833,52.6667 214.5,53C 213.167,53.6667 211.833,54.3333 210.5,55C 212.044,55.2896 213.377,55.9563 214.5,57C 212.055,58.778 209.389,60.1113 206.5,61C 209.713,61.7026 212.879,61.5359 216,60.5C 216.5,60.6667 217,60.8333 217.5,61C 214.03,63.1229 214.03,64.2895 217.5,64.5C 217.567,65.9587 217.234,67.2921 216.5,68.5C 205.409,61.6418 193.409,59.6418 180.5,62.5C 180.804,61.8501 181.137,61.1835 181.5,60.5C 179.298,57.605 179.631,54.7717 182.5,52C 181.833,51 181.167,50 180.5,49C 181.624,48.7508 182.624,48.2508 183.5,47.5C 184.018,45.1002 185.185,43.1002 187,41.5C 188.335,38.7763 188.502,36.1096 187.5,33.5C 188.5,33.5 189.5,33.5 190.5,33.5C 190.433,32.0413 190.766,30.7079 191.5,29.5 Z"/></g>
<g><path style="opacity:0.995" fill="#171717" d="M 99.5,33.5 C 100.552,33.3505 101.552,33.5172 102.5,34C 101.167,35 101.167,36 102.5,37C 101.551,37.6172 100.718,37.4506 100,36.5C 98.507,40.0578 96.3403,40.3912 93.5,37.5C 93.2635,38.2472 92.9302,39.0805 92.5,40C 94.1096,41.4947 95.7763,41.6613 97.5,40.5C 100.387,45.66 103.887,46.3267 108,42.5C 109.882,43.606 111.716,43.606 113.5,42.5C 111.881,42.0952 109.881,41.5952 107.5,41C 112.101,38.9621 115.434,40.2954 117.5,45C 115.5,45 113.5,45 111.5,45C 114.014,46.4515 116.68,47.6182 119.5,48.5C 116.71,51.922 116.877,52.5887 120,50.5C 120.414,50.9574 120.914,51.2907 121.5,51.5C 120.277,52.915 120.277,55.0816 121.5,58C 121.833,58.5 122.167,59 122.5,59.5C 123.251,58.624 123.751,57.624 124,56.5C 124.199,58.4025 125.033,59.9025 126.5,61C 125.251,62.8241 124.085,62.6574 123,60.5C 122.583,61.756 121.75,62.4226 120.5,62.5C 104.297,58.6723 90.4641,62.6723 79,74.5C 74.0092,82.3436 73.1759,90.6769 76.5,99.5C 72.8336,104.162 69.6669,109.162 67,114.5C 65.8162,122.963 69.3162,128.463 77.5,131C 81.5479,136.852 86.8813,141.019 93.5,143.5C 97.1323,145.54 101.132,146.707 105.5,147C 107.019,148.351 108.352,149.851 109.5,151.5C 108.691,153.071 108.357,154.738 108.5,156.5C 106.533,156.261 104.699,156.594 103,157.5C 100.518,154.051 97.685,150.884 94.5,148C 90.1654,147.166 85.832,146.333 81.5,145.5C 80.8333,145.833 80.1667,146.167 79.5,146.5C 84.6996,153.703 91.3662,159.036 99.5,162.5C 101.327,164.487 102.327,166.821 102.5,169.5C 99.7508,169.274 97.0841,169.607 94.5,170.5C 91.1667,168.5 87.8333,166.5 84.5,164.5C 80.3038,165.785 76.3038,167.452 72.5,169.5C 77.6435,175.629 84.3102,178.295 92.5,177.5C 93.8587,179.306 93.5254,180.806 91.5,182C 93.2497,184.513 93.4164,187.346 92,190.5C 88.3276,193.342 84.8276,196.342 81.5,199.5C 84.3388,201.42 87.3388,203.087 90.5,204.5C 92.861,201.623 94.861,198.456 96.5,195C 97.8333,194.333 99.1667,194.333 100.5,195C 112.919,210.793 129.086,219.959 149,222.5C 170.96,221.436 188.793,212.27 202.5,195C 203.833,194.333 205.167,194.333 206.5,195C 208.139,198.456 210.139,201.623 212.5,204.5C 215.661,203.087 218.661,201.42 221.5,199.5C 218.172,196.342 214.672,193.342 211,190.5C 209.584,187.346 209.75,184.513 211.5,182C 209.475,180.806 209.141,179.306 210.5,177.5C 218.69,178.295 225.357,175.629 230.5,169.5C 226.51,167.836 222.51,166.169 218.5,164.5C 215.065,166.633 211.565,168.633 208,170.5C 205.566,169.678 203.066,169.344 200.5,169.5C 200.586,167.323 201.253,165.323 202.5,163.5C 210.972,159.699 217.972,154.032 223.5,146.5C 222.667,146.167 221.833,145.833 221,145.5C 216.833,146.333 212.667,147.167 208.5,148C 205.315,150.884 202.482,154.051 200,157.5C 198.301,156.594 196.467,156.261 194.5,156.5C 194.567,154.599 194.233,152.766 193.5,151C 194.506,149.662 195.506,148.329 196.5,147C 208.05,145.727 217.383,140.561 224.5,131.5C 230.724,129.28 234.39,124.947 235.5,118.5C 239.673,117.307 240.006,116.141 236.5,115C 237.314,111.925 239.314,110.258 242.5,110C 240.557,108.807 240.724,107.307 243,105.5C 245.027,109.288 243.86,111.788 239.5,113C 240.549,113.492 241.549,113.326 242.5,112.5C 243.893,113.863 245.559,114.696 247.5,115C 247.167,116 246.833,117 246.5,118C 249.49,118.76 251.99,117.927 254,115.5C 255.811,116.078 257.645,116.578 259.5,117C 255.371,118.693 255.037,120.36 258.5,122C 256.687,121.954 255.021,122.12 253.5,122.5C 257.007,124.826 257.007,126.659 253.5,128C 254.649,129.744 255.983,129.911 257.5,128.5C 258.711,127.726 258.711,126.893 257.5,126C 258.253,124.513 259.086,124.346 260,125.5C 260.55,121.543 262.384,120.376 265.5,122C 264.5,122.333 263.5,122.667 262.5,123C 265.43,124.659 268.43,124.992 271.5,124C 269.212,124.822 266.878,125.489 264.5,126C 265.328,126.915 266.328,127.581 267.5,128C 267.167,128.333 266.833,128.667 266.5,129C 269.167,130.667 269.167,132.333 266.5,134C 267.672,134.419 268.672,135.085 269.5,136C 267.974,137.887 265.974,138.887 263.5,139C 265.709,140.691 267.542,140.524 269,138.5C 269.483,139.448 269.649,140.448 269.5,141.5C 270.675,141.719 271.675,141.386 272.5,140.5C 271.833,140.167 271.167,139.833 270.5,139.5C 270.865,138.098 271.699,137.098 273,136.5C 275.424,137.051 277.924,137.384 280.5,137.5C 282.355,167.414 275.522,195.081 260,220.5C 256.718,224.759 253.218,228.759 249.5,232.5C 249.047,231.542 248.381,230.708 247.5,230C 250.849,229.911 251.349,228.744 249,226.5C 246.631,227.927 246.131,229.761 247.5,232C 244.851,232.452 242.351,233.286 240,234.5C 238.387,233.378 237.22,233.878 236.5,236C 233.901,236.769 231.401,236.602 229,235.5C 226.934,238.068 224.601,239.402 222,239.5C 221.342,237.892 221.842,236.725 223.5,236C 220.937,235.846 218.437,236.346 216,237.5C 213.829,236.405 212.162,237.072 211,239.5C 210.667,239.167 210.333,238.833 210,238.5C 209.293,240.081 208.46,241.581 207.5,243C 209.896,243.879 212.229,244.546 214.5,245C 208.34,247.319 202.674,246.486 197.5,242.5C 195.813,242.76 194.313,243.427 193,244.5C 192.333,243.833 191.667,243.167 191,242.5C 188.786,245.294 186.453,245.961 184,244.5C 183.333,245.167 182.667,245.833 182,246.5C 179.412,242.867 176.079,241.867 172,243.5C 168.774,239.6 167.274,239.933 167.5,244.5C 167.167,244.5 166.833,244.5 166.5,244.5C 165.811,243.226 164.977,243.226 164,244.5C 163.544,243.256 164.044,242.423 165.5,242C 163.5,241.333 161.5,241.333 159.5,242C 160.641,242.741 160.641,243.575 159.5,244.5C 157.693,245.799 156.027,245.632 154.5,244C 155.672,243.581 156.672,242.915 157.5,242C 155.447,241.675 153.447,242.009 151.5,243C 152.654,243.914 152.487,244.747 151,245.5C 150.667,244.5 150.333,243.5 150,242.5C 148.887,243.711 147.72,243.711 146.5,242.5C 146.598,243.616 146.098,244.616 145,245.5C 144.454,244.711 143.787,243.711 143,242.5C 141.342,244.323 139.509,245.99 137.5,247.5C 137.002,246.397 136.669,245.397 136.5,244.5C 135.673,246.162 134.507,247.495 133,248.5C 128.377,248.312 123.877,246.978 119.5,244.5C 118.006,244.709 116.839,245.376 116,246.5C 115.282,245.549 114.449,245.383 113.5,246C 114.252,246.671 114.586,247.504 114.5,248.5C 113.209,248.263 112.209,248.596 111.5,249.5C 107.807,248.753 107.807,247.42 111.5,245.5C 108.527,244.491 105.527,244.491 102.5,245.5C 102.351,244.448 102.517,243.448 103,242.5C 106.474,243.928 106.974,243.428 104.5,241C 105.535,239.493 105.368,237.993 104,236.5C 103,238.167 101.667,239.5 100,240.5C 97,239.5 94,238.5 91,237.5C 89.3179,239.554 87.6512,239.221 86,236.5C 85.4257,238.492 84.259,239.992 82.5,241C 83.1667,241.333 83.8333,241.667 84.5,242C 82.1616,243.162 80.8283,244.996 80.5,247.5C 50.6228,227.447 33.1228,199.447 28,163.5C 20.4843,109.042 39.9843,67.5419 86.5,39C 90.6347,36.5965 94.9681,34.7632 99.5,33.5 Z"/></g>
<g><path style="opacity:1" fill="#515151" d="M 148.5,71.5 C 147.952,69.4677 146.619,68.4677 144.5,68.5C 144.286,66.8561 144.62,65.3561 145.5,64C 143.436,62.9822 143.102,61.6489 144.5,60C 143.419,58.6293 142.585,57.1293 142,55.5C 141.667,56.1667 141.333,56.8333 141,57.5C 139.456,55.5318 138.289,53.3651 137.5,51C 135.012,49.5382 132.345,48.5382 129.5,48C 131.734,47.0311 133.734,45.6978 135.5,44C 133.833,43.6667 132.167,43.3333 130.5,43C 131.634,41.984 131.301,41.3173 129.5,41C 131.134,40.5065 132.801,40.3398 134.5,40.5C 135.15,40.1961 135.817,39.8627 136.5,39.5C 139.195,41.9429 141.695,41.6095 144,38.5C 144.483,39.448 144.649,40.448 144.5,41.5C 146.433,41.7286 148.1,42.5619 149.5,44C 148.529,45.2036 147.529,45.7036 146.5,45.5C 150.361,46.5976 150.361,47.4309 146.5,48C 147.991,50.0217 147.658,51.6883 145.5,53C 149.326,53.7474 152.993,54.0808 156.5,54C 155.366,55.016 155.699,55.6827 157.5,56C 156.207,56.49 154.873,56.6567 153.5,56.5C 154.167,58.5 154.833,60.5 155.5,62.5C 160.102,62.7169 160.102,64.2169 155.5,67C 160.755,66.7981 160.755,67.6314 155.5,69.5C 151.507,67.8018 150.84,68.4685 153.5,71.5C 151.701,72.7879 150.035,72.7879 148.5,71.5 Z"/></g>
<g><path style="opacity:1" fill="#686868" d="M 217.5,40.5 C 219.483,41.4706 221.483,42.4706 223.5,43.5C 223.36,45.1238 224.027,46.2904 225.5,47C 222.833,48.3333 222.833,49.6667 225.5,51C 224.5,51.3333 223.5,51.6667 222.5,52C 223.424,52.85 223.424,53.85 222.5,55C 223.477,57.7607 225.477,59.094 228.5,59C 227.207,59.49 225.873,59.6567 224.5,59.5C 224.5,60.8333 224.5,62.1667 224.5,63.5C 221.45,62.9232 219.45,64.0899 218.5,67C 218.952,68.6124 220.285,69.6124 222.5,70C 221.748,70.6708 221.414,71.5041 221.5,72.5C 219.833,71.1667 218.167,69.8333 216.5,68.5C 217.234,67.2921 217.567,65.9587 217.5,64.5C 214.03,64.2895 214.03,63.1229 217.5,61C 217,60.8333 216.5,60.6667 216,60.5C 212.879,61.5359 209.713,61.7026 206.5,61C 209.389,60.1113 212.055,58.778 214.5,57C 213.377,55.9563 212.044,55.2896 210.5,55C 211.833,54.3333 213.167,53.6667 214.5,53C 213.833,52.6667 213.167,52.3333 212.5,52C 213.833,51.3333 215.167,50.6667 216.5,50C 215.692,49.6924 215.025,49.1924 214.5,48.5C 216.986,46.422 217.986,43.7553 217.5,40.5 Z"/></g>
<g><path style="opacity:1" fill="#2c2c2c" d="M 104.5,31.5 C 105.922,31.7086 107.255,32.2086 108.5,33C 105.879,33.9056 106.046,34.4056 109,34.5C 111.416,32.2534 113.916,32.0867 116.5,34C 113.007,35.4172 112.84,36.9172 116,38.5C 116.739,37.4258 117.739,36.7591 119,36.5C 120.416,37.5733 121.75,37.5733 123,36.5C 123.591,37.4835 123.257,38.1501 122,38.5C 116.564,39.4789 116.398,40.3123 121.5,41C 122.641,41.7412 122.641,42.5745 121.5,43.5C 122.689,44.4287 124.022,44.762 125.5,44.5C 125.331,49.0407 125.998,49.374 127.5,45.5C 128.671,48.3527 127.338,50.5194 123.5,52C 125,52.8333 126.167,54 127,55.5C 127.333,55.1667 127.667,54.8333 128,54.5C 129,56.1667 130,57.8333 131,59.5C 132.86,54.3708 133.526,54.3708 133,59.5C 132.5,60 132,60.5 131.5,61C 133.163,61.2649 134.663,60.7649 136,59.5C 136.925,60.0465 137.758,60.7132 138.5,61.5C 137.055,61.2939 135.388,61.6272 133.5,62.5C 132.068,62.7332 131.568,63.3999 132,64.5C 134.147,63.5243 136.314,63.691 138.5,65C 139.376,67.3757 141.042,68.8757 143.5,69.5C 141.482,69.8714 139.482,70.2047 137.5,70.5C 132.151,66.9904 126.485,64.3237 120.5,62.5C 121.75,62.4226 122.583,61.756 123,60.5C 124.085,62.6574 125.251,62.8241 126.5,61C 125.033,59.9025 124.199,58.4025 124,56.5C 123.751,57.624 123.251,58.624 122.5,59.5C 122.167,59 121.833,58.5 121.5,58C 120.277,55.0816 120.277,52.915 121.5,51.5C 120.914,51.2907 120.414,50.9574 120,50.5C 116.877,52.5887 116.71,51.922 119.5,48.5C 116.68,47.6182 114.014,46.4515 111.5,45C 113.5,45 115.5,45 117.5,45C 115.434,40.2954 112.101,38.9621 107.5,41C 109.881,41.5952 111.881,42.0952 113.5,42.5C 111.716,43.606 109.882,43.606 108,42.5C 103.887,46.3267 100.387,45.66 97.5,40.5C 95.7763,41.6613 94.1096,41.4947 92.5,40C 92.9302,39.0805 93.2635,38.2472 93.5,37.5C 96.3403,40.3912 98.507,40.0578 100,36.5C 100.718,37.4506 101.551,37.6172 102.5,37C 101.167,36 101.167,35 102.5,34C 101.552,33.5172 100.552,33.3505 99.5,33.5C 100.78,32.0687 102.447,31.4021 104.5,31.5 Z"/></g>
<g><path style="opacity:1" fill="#3f3f3f" d="M 122.5,25.5 C 124.305,27.1969 126.639,28.0302 129.5,28C 126.363,28.6011 123.363,29.6011 120.5,31C 123.544,31.3589 123.878,32.0255 121.5,33C 122.833,34 124.167,35 125.5,36C 124.949,37.3985 124.616,38.7318 124.5,40C 127.975,39.4124 131.308,39.5791 134.5,40.5C 132.801,40.3398 131.134,40.5065 129.5,41C 131.301,41.3173 131.634,41.984 130.5,43C 132.167,43.3333 133.833,43.6667 135.5,44C 133.734,45.6978 131.734,47.0311 129.5,48C 132.345,48.5382 135.012,49.5382 137.5,51C 138.289,53.3651 139.456,55.5318 141,57.5C 141.333,56.8333 141.667,56.1667 142,55.5C 142.585,57.1293 143.419,58.6293 144.5,60C 143.102,61.6489 143.436,62.9822 145.5,64C 144.62,65.3561 144.286,66.8561 144.5,68.5C 146.619,68.4677 147.952,69.4677 148.5,71.5C 144.569,72.4072 144.569,73.5739 148.5,75C 146.97,76.1203 145.303,76.9536 143.5,77.5C 141.5,75.1667 139.5,72.8333 137.5,70.5C 139.482,70.2047 141.482,69.8714 143.5,69.5C 141.042,68.8757 139.376,67.3757 138.5,65C 136.314,63.691 134.147,63.5243 132,64.5C 131.568,63.3999 132.068,62.7332 133.5,62.5C 135.388,61.6272 137.055,61.2939 138.5,61.5C 137.758,60.7132 136.925,60.0465 136,59.5C 134.663,60.7649 133.163,61.2649 131.5,61C 132,60.5 132.5,60 133,59.5C 133.526,54.3708 132.86,54.3708 131,59.5C 130,57.8333 129,56.1667 128,54.5C 127.667,54.8333 127.333,55.1667 127,55.5C 126.167,54 125,52.8333 123.5,52C 127.338,50.5194 128.671,48.3527 127.5,45.5C 125.998,49.374 125.331,49.0407 125.5,44.5C 124.022,44.762 122.689,44.4287 121.5,43.5C 122.641,42.5745 122.641,41.7412 121.5,41C 116.398,40.3123 116.564,39.4789 122,38.5C 123.257,38.1501 123.591,37.4835 123,36.5C 121.75,37.5733 120.416,37.5733 119,36.5C 117.739,36.7591 116.739,37.4258 116,38.5C 112.84,36.9172 113.007,35.4172 116.5,34C 113.916,32.0867 111.416,32.2534 109,34.5C 106.046,34.4056 105.879,33.9056 108.5,33C 107.255,32.2086 105.922,31.7086 104.5,31.5C 110.195,28.9017 116.195,26.9017 122.5,25.5 Z"/></g>
<g><path style="opacity:1" fill="#515151" d="M 223.5,43.5 C 226.047,44.9336 228.381,46.6002 230.5,48.5C 228.621,48.3932 228.288,48.8932 229.5,50C 228.624,51.586 227.624,53.086 226.5,54.5C 229.066,56.2002 231.899,57.5335 235,58.5C 234.981,60.1075 234.815,61.7741 234.5,63.5C 240.261,63.7088 240.594,64.5422 235.5,66C 236.167,66.3333 236.833,66.6667 237.5,67C 236.809,68.0674 236.309,69.2341 236,70.5C 234.334,69.6598 234.167,70.1598 235.5,72C 232.953,72.0674 230.786,72.9007 229,74.5C 228.88,77.6999 230.38,79.8666 233.5,81C 232.24,82.113 231.073,82.2797 230,81.5C 229.735,83.1626 230.235,84.6626 231.5,86C 230.837,87.5185 229.837,88.6851 228.5,89.5C 228.675,87.3792 228.341,85.3792 227.5,83.5C 226.274,79.38 224.274,75.7133 221.5,72.5C 221.414,71.5041 221.748,70.6708 222.5,70C 220.285,69.6124 218.952,68.6124 218.5,67C 219.45,64.0899 221.45,62.9232 224.5,63.5C 224.5,62.1667 224.5,60.8333 224.5,59.5C 225.873,59.6567 227.207,59.49 228.5,59C 225.477,59.094 223.477,57.7607 222.5,55C 223.424,53.85 223.424,52.85 222.5,52C 223.5,51.6667 224.5,51.3333 225.5,51C 222.833,49.6667 222.833,48.3333 225.5,47C 224.027,46.2904 223.36,45.1238 223.5,43.5 Z"/></g>
<g><path style="opacity:1" fill="#737373" d="M 220.5,75.5 C 217.503,74.6799 214.669,74.3465 212,74.5C 209.904,75.7155 210.071,76.5488 212.5,77C 211.16,79.3376 209.826,81.671 208.5,84C 208.905,84.9454 209.572,85.6121 210.5,86C 207.095,86.3177 205.095,88.151 204.5,91.5C 201.31,92.1811 198.31,93.1811 195.5,94.5C 195.5,94.8333 195.5,95.1667 195.5,95.5C 195.769,90.5804 193.436,87.4137 188.5,86C 177.835,84.6027 167.501,85.7694 157.5,89.5C 156.581,86.3738 157.081,83.3738 159,80.5C 166.371,69.7882 176.538,64.2882 189.5,64C 188.421,64.956 187.255,65.7894 186,66.5C 185.312,67.3317 185.479,67.9984 186.5,68.5C 190.077,64.7067 194.411,63.2067 199.5,64C 197.246,65.3767 195.08,66.8767 193,68.5C 192.312,69.3317 192.479,69.9984 193.5,70.5C 196.543,68.2868 199.71,66.2868 203,64.5C 204.225,64.8623 205.391,65.3623 206.5,66C 203.991,67.4213 201.657,69.0879 199.5,71C 203.047,70.6625 206.381,69.4958 209.5,67.5C 210.167,67.8333 210.833,68.1667 211.5,68.5C 210.653,69.8448 209.487,70.8448 208,71.5C 207.312,72.3317 207.479,72.9984 208.5,73.5C 213.382,69.0551 217.382,69.7218 220.5,75.5 Z"/></g>
<g><path style="opacity:1" fill="#3a3a3a" d="M 246.5,61.5 C 257.214,70.8866 265.214,82.2199 270.5,95.5C 269.448,95.3505 268.448,95.5172 267.5,96C 268.696,96.6543 268.696,97.1543 267.5,97.5C 263.903,95.0152 260.236,93.6819 256.5,93.5C 256.095,95.6498 255.595,97.6498 255,99.5C 256,98.1667 257,98.1667 258,99.5C 259.743,97.0254 260.743,97.0254 261,99.5C 258.132,101.425 255.465,101.425 253,99.5C 251.913,101.932 251.413,101.598 251.5,98.5C 250.448,98.6495 249.448,98.4828 248.5,98C 252.391,96.0374 252.391,94.204 248.5,92.5C 247,94.8333 245.5,97.1667 244,99.5C 237.584,94.4025 238.417,90.9025 246.5,89C 243.262,87.015 240.762,87.8484 239,91.5C 238.727,89.8988 238.227,88.3988 237.5,87C 240.167,86 240.167,85 237.5,84C 238.126,83.2496 238.626,82.4162 239,81.5C 239.368,82.91 240.201,83.91 241.5,84.5C 243.2,81.8825 245.366,81.2158 248,82.5C 249.158,82.0019 249.991,81.1685 250.5,80C 248.235,79.4546 246.068,77.9546 244,75.5C 242.984,76.6341 242.317,76.3008 242,74.5C 241.667,75.1667 241.333,75.8333 241,76.5C 239.303,75.6364 238.137,74.3031 237.5,72.5C 238.641,71.5745 238.641,70.7412 237.5,70C 239.055,68.4173 240.222,66.584 241,64.5C 242.425,63.7877 243.925,63.621 245.5,64C 246.252,63.3292 246.586,62.4959 246.5,61.5 Z"/></g>
<g><path style="opacity:1" fill="#ececec" d="M 216.5,68.5 C 218.167,69.8333 219.833,71.1667 221.5,72.5C 224.274,75.7133 226.274,79.38 227.5,83.5C 226.833,83.5 226.167,83.5 225.5,83.5C 224.32,80.4604 222.653,77.7937 220.5,75.5C 217.382,69.7218 213.382,69.0551 208.5,73.5C 207.479,72.9984 207.312,72.3317 208,71.5C 209.487,70.8448 210.653,69.8448 211.5,68.5C 210.833,68.1667 210.167,67.8333 209.5,67.5C 206.381,69.4958 203.047,70.6625 199.5,71C 201.657,69.0879 203.991,67.4213 206.5,66C 205.391,65.3623 204.225,64.8623 203,64.5C 199.71,66.2868 196.543,68.2868 193.5,70.5C 192.479,69.9984 192.312,69.3317 193,68.5C 195.08,66.8767 197.246,65.3767 199.5,64C 194.411,63.2067 190.077,64.7067 186.5,68.5C 185.479,67.9984 185.312,67.3317 186,66.5C 187.255,65.7894 188.421,64.956 189.5,64C 176.538,64.2882 166.371,69.7882 159,80.5C 157.081,83.3738 156.581,86.3738 157.5,89.5C 167.501,85.7694 177.835,84.6027 188.5,86C 193.436,87.4137 195.769,90.5804 195.5,95.5C 199.76,105.293 207.094,108.627 217.5,105.5C 218.167,105.5 218.5,105.833 218.5,106.5C 215.095,107.343 212.095,108.676 209.5,110.5C 209.768,112.099 209.434,113.432 208.5,114.5C 208.728,110.978 207.228,108.644 204,107.5C 196.154,110.141 188.321,110.141 180.5,107.5C 178.028,106.091 175.695,104.424 173.5,102.5C 171.195,99.5925 169.862,96.2592 169.5,92.5C 170.721,91.5354 172.054,91.702 173.5,93C 179.167,93.6667 184.833,93.6667 190.5,93C 192.481,92.3946 192.815,91.3946 191.5,90C 182.919,86.9091 174.252,86.7424 165.5,89.5C 161.936,89.6876 158.603,90.6876 155.5,92.5C 154.348,89.8938 154.182,87.2272 155,84.5C 159.948,73.052 168.448,65.7186 180.5,62.5C 193.409,59.6418 205.409,61.6418 216.5,68.5 Z"/></g>
<g><path style="opacity:1" fill="#e4e4e4" d="M 120.5,62.5 C 126.485,64.3237 132.151,66.9904 137.5,70.5C 139.5,72.8333 141.5,75.1667 143.5,77.5C 147.182,81.9412 148.182,86.9412 146.5,92.5C 145.583,91.8728 144.583,91.5394 143.5,91.5C 140.579,90.304 137.579,89.304 134.5,88.5C 127.856,87.5572 121.189,87.3905 114.5,88C 112.919,88.7065 111.419,89.5399 110,90.5C 109.544,91.7441 110.044,92.5774 111.5,93C 118.314,93.9912 124.98,93.4912 131.5,91.5C 132.441,97.1336 130.441,101.634 125.5,105C 116.545,109.881 107.212,110.715 97.5,107.5C 96.5581,107.608 95.7247,107.941 95,108.5C 94.098,112.753 92.9313,116.92 91.5,121C 94.538,123.696 97.8713,126.03 101.5,128C 103.373,129.704 105.04,131.537 106.5,133.5C 105.833,133.5 105.5,133.833 105.5,134.5C 101.114,130.554 96.2804,127.22 91,124.5C 88.1227,127.694 84.6227,130.027 80.5,131.5C 84.6117,135.953 89.2783,139.62 94.5,142.5C 93.8333,142.5 93.5,142.833 93.5,143.5C 86.8813,141.019 81.5479,136.852 77.5,131C 69.3162,128.463 65.8162,122.963 67,114.5C 69.6669,109.162 72.8336,104.162 76.5,99.5C 73.1759,90.6769 74.0092,82.3436 79,74.5C 90.4641,62.6723 104.297,58.6723 120.5,62.5 Z"/></g>
<g><path style="opacity:1" fill="#191919" d="M 141.5,79.5 C 142.323,84.3394 140.323,86.6728 135.5,86.5C 128.202,85.4409 120.869,85.2743 113.5,86C 111.413,86.7922 109.579,87.9588 108,89.5C 104.875,105.312 96.0418,109.812 81.5,103C 75.036,93.9601 74.8693,84.7934 81,75.5C 84.4276,69.7643 88.5943,69.0977 93.5,73.5C 94.521,72.9984 94.6877,72.3317 94,71.5C 92.5134,70.8448 91.3467,69.8448 90.5,68.5C 91.1667,68.1667 91.8333,67.8333 92.5,67.5C 95.6195,69.4958 98.9528,70.6625 102.5,71C 100.343,69.0879 98.0094,67.4213 95.5,66C 96.6086,65.3623 97.7753,64.8623 99,64.5C 102.29,66.2868 105.457,68.2868 108.5,70.5C 109.521,69.9984 109.688,69.3317 109,68.5C 106.92,66.8767 104.754,65.3767 102.5,64C 107.589,63.2067 111.923,64.7067 115.5,68.5C 116.521,67.9984 116.688,67.3317 116,66.5C 114.745,65.7894 113.579,64.956 112.5,64C 120.374,64.5132 127.708,66.8465 134.5,71C 137.447,73.4356 139.78,76.2689 141.5,79.5 Z"/></g>
<g><path style="opacity:1" fill="#585858" d="M 141.5,79.5 C 144.824,82.1447 145.824,85.4781 144.5,89.5C 141.338,88.635 138.338,87.635 135.5,86.5C 140.323,86.6728 142.323,84.3394 141.5,79.5 Z"/></g>
<g><path style="opacity:1" fill="#191919" d="M 134.5,88.5 C 135.574,89.8846 136.907,91.0513 138.5,92C 136.099,92.805 136.266,93.6383 139,94.5C 139.78,96.3869 139.613,98.0536 138.5,99.5C 137.883,99.3893 137.383,99.056 137,98.5C 136.682,100.061 135.849,101.228 134.5,102C 135.167,102.333 135.833,102.667 136.5,103C 135.234,103.309 134.067,103.809 133,104.5C 132.667,104.167 132.333,103.833 132,103.5C 131.667,104.5 131.333,105.5 131,106.5C 130.667,106.167 130.333,105.833 130,105.5C 128.289,109.126 128.956,109.792 132,107.5C 134.871,107.212 137.704,107.712 140.5,109C 138.203,110.16 138.536,111.16 141.5,112C 140.949,113.398 140.616,114.732 140.5,116C 141.784,116.684 142.951,116.517 144,115.5C 144.456,116.744 143.956,117.577 142.5,118C 143.981,118.98 145.315,120.147 146.5,121.5C 147.696,121.154 147.696,120.654 146.5,120C 148.112,119.28 149.612,119.446 151,120.5C 151.903,119.299 153.069,118.465 154.5,118C 153.944,117.617 153.611,117.117 153.5,116.5C 153.5,115.833 153.833,115.5 154.5,115.5C 156.667,116.198 158.5,117.531 160,119.5C 161.073,118.72 162.24,118.887 163.5,120C 162.156,122.144 162.49,123.977 164.5,125.5C 164.5,127.167 164.5,128.833 164.5,130.5C 155.833,130.5 147.167,130.5 138.5,130.5C 138.784,128.585 138.451,126.919 137.5,125.5C 136.526,122.346 134.526,121.346 131.5,122.5C 135.094,123.875 136.428,126.542 135.5,130.5C 128.492,130.334 121.492,130.5 114.5,131C 113.577,133.041 113.244,135.208 113.5,137.5C 112.167,137.5 110.833,137.5 109.5,137.5C 108.488,136.128 107.488,134.795 106.5,133.5C 105.04,131.537 103.373,129.704 101.5,128C 97.8713,126.03 94.538,123.696 91.5,121C 92.9313,116.92 94.098,112.753 95,108.5C 95.7247,107.941 96.5581,107.608 97.5,107.5C 107.212,110.715 116.545,109.881 125.5,105C 130.441,101.634 132.441,97.1336 131.5,91.5C 124.98,93.4912 118.314,93.9912 111.5,93C 110.044,92.5774 109.544,91.7441 110,90.5C 111.419,89.5399 112.919,88.7065 114.5,88C 121.189,87.3905 127.856,87.5572 134.5,88.5 Z"/></g>
<g><path style="opacity:1" fill="#717171" d="M 169.5,92.5 C 167.623,93.5712 166.956,94.9045 167.5,96.5C 166.579,94.2235 165.913,91.8901 165.5,89.5C 174.252,86.7424 182.919,86.9091 191.5,90C 192.815,91.3946 192.481,92.3946 190.5,93C 184.833,93.6667 179.167,93.6667 173.5,93C 172.054,91.702 170.721,91.5354 169.5,92.5 Z"/></g>
<g><path style="opacity:1" fill="#5a5a5a" d="M 220.5,75.5 C 222.653,77.7937 224.32,80.4604 225.5,83.5C 225.5,86.8333 225.5,90.1667 225.5,93.5C 223.544,91.1027 221.71,91.1027 220,93.5C 219.439,92.9781 218.772,92.6448 218,92.5C 213.035,94.8009 208.535,94.4676 204.5,91.5C 205.095,88.151 207.095,86.3177 210.5,86C 209.572,85.6121 208.905,84.9454 208.5,84C 209.826,81.671 211.16,79.3376 212.5,77C 210.071,76.5488 209.904,75.7155 212,74.5C 214.669,74.3465 217.503,74.6799 220.5,75.5 Z"/></g>
<g><path style="opacity:1" fill="#444444" d="M 204.5,91.5 C 208.535,94.4676 213.035,94.8009 218,92.5C 218.772,92.6448 219.439,92.9781 220,93.5C 221.71,91.1027 223.544,91.1027 225.5,93.5C 225.204,95.403 224.537,97.0697 223.5,98.5C 223.294,96.4508 222.461,96.1175 221,97.5C 220,96.5 219,95.5 218,94.5C 217.125,96.5127 215.791,96.5127 214,94.5C 212.846,95.7433 211.512,96.7433 210,97.5C 205.232,96.3129 200.399,95.3129 195.5,94.5C 198.31,93.1811 201.31,92.1811 204.5,91.5 Z"/></g>
<g><path style="opacity:1" fill="#1d1d1d" d="M 108.5,94.5 C 115.364,95.7812 122.197,95.7812 129,94.5C 128.578,99.2882 126.078,102.788 121.5,105C 114.945,107.809 108.278,108.142 101.5,106C 105.767,103.255 108.101,99.4221 108.5,94.5 Z"/></g>
<g><path style="opacity:1" fill="#4e4e4e" d="M 188.5,95.5 C 186.302,97.3969 183.636,98.3969 180.5,98.5C 180.587,101.598 180.087,101.932 179,99.5C 178.005,100.066 177.172,100.733 176.5,101.5C 173.724,99.9477 172.557,97.6144 173,94.5C 178.072,95.4714 183.238,95.8047 188.5,95.5 Z"/></g>
<g><path style="opacity:1" fill="#232323" d="M 176.5,101.5 C 177.172,100.733 178.005,100.066 179,99.5C 180.087,101.932 180.587,101.598 180.5,98.5C 183.636,98.3969 186.302,97.3969 188.5,95.5C 190.117,94.962 191.784,94.6287 193.5,94.5C 193.916,99.4335 196.25,103.267 200.5,106C 192.874,108.42 185.54,107.753 178.5,104C 177.619,103.292 176.953,102.458 176.5,101.5 Z"/></g>
<g><path style="opacity:1" fill="#181818" d="M 76.5,102.5 C 81.3028,105.898 86.6361,108.231 92.5,109.5C 91.4654,114.638 89.9654,119.638 88,124.5C 84.5483,128.046 80.3816,129.213 75.5,128C 69.8912,124.723 68.0578,119.89 70,113.5C 71.6743,109.476 73.841,105.809 76.5,102.5 Z"/></g>
<g><path style="opacity:1" fill="#232323" d="M 195.5,94.5 C 200.399,95.3129 205.232,96.3129 210,97.5C 211.512,96.7433 212.846,95.7433 214,94.5C 215.791,96.5127 217.125,96.5127 218,94.5C 219,95.5 220,96.5 221,97.5C 222.461,96.1175 223.294,96.4508 223.5,98.5C 222.19,101.473 220.19,103.807 217.5,105.5C 207.094,108.627 199.76,105.293 195.5,95.5C 195.5,95.1667 195.5,94.8333 195.5,94.5 Z"/></g>
<g><path style="opacity:1" fill="#313131" d="M 230.5,48.5 C 236.438,52.106 241.771,56.4393 246.5,61.5C 246.586,62.4959 246.252,63.3292 245.5,64C 243.925,63.621 242.425,63.7877 241,64.5C 240.222,66.584 239.055,68.4173 237.5,70C 238.641,70.7412 238.641,71.5745 237.5,72.5C 238.137,74.3031 239.303,75.6364 241,76.5C 241.333,75.8333 241.667,75.1667 242,74.5C 242.317,76.3008 242.984,76.6341 244,75.5C 246.068,77.9546 248.235,79.4546 250.5,80C 249.991,81.1685 249.158,82.0019 248,82.5C 245.366,81.2158 243.2,81.8825 241.5,84.5C 240.201,83.91 239.368,82.91 239,81.5C 238.626,82.4162 238.126,83.2496 237.5,84C 240.167,85 240.167,86 237.5,87C 238.227,88.3988 238.727,89.8988 239,91.5C 240.762,87.8484 243.262,87.015 246.5,89C 238.417,90.9025 237.584,94.4025 244,99.5C 245.5,97.1667 247,94.8333 248.5,92.5C 252.391,94.204 252.391,96.0374 248.5,98C 249.448,98.4828 250.448,98.6495 251.5,98.5C 251.413,101.598 251.913,101.932 253,99.5C 255.465,101.425 258.132,101.425 261,99.5C 260.743,97.0254 259.743,97.0254 258,99.5C 257,98.1667 256,98.1667 255,99.5C 255.595,97.6498 256.095,95.6498 256.5,93.5C 260.236,93.6819 263.903,95.0152 267.5,97.5C 268.696,97.1543 268.696,96.6543 267.5,96C 268.448,95.5172 269.448,95.3505 270.5,95.5C 274.201,101.943 276.535,108.943 277.5,116.5C 275.215,115.454 272.882,115.454 270.5,116.5C 270.657,115.127 270.49,113.793 270,112.5C 267.936,113.591 265.769,113.758 263.5,113C 265.384,112.784 267.051,112.117 268.5,111C 266.671,110.727 265.171,109.893 264,108.5C 263.549,110.929 262.715,111.096 261.5,109C 262.345,107.442 261.679,106.442 259.5,106C 257.888,105.28 256.388,105.446 255,106.5C 253.172,104.193 251.506,104.526 250,107.5C 248.173,105.76 248.34,104.093 250.5,102.5C 250.167,102.167 249.833,101.833 249.5,101.5C 248.194,102.912 247.36,104.579 247,106.5C 245.513,105.747 245.346,104.914 246.5,104C 244.5,103.333 242.5,103.333 240.5,104C 238.999,105.252 237.332,106.252 235.5,107C 234.177,107.816 233.511,108.983 233.5,110.5C 230.89,106.875 228.223,103.208 225.5,99.5C 227.095,96.3199 228.095,92.9865 228.5,89.5C 229.837,88.6851 230.837,87.5185 231.5,86C 230.235,84.6626 229.735,83.1626 230,81.5C 231.073,82.2797 232.24,82.113 233.5,81C 230.38,79.8666 228.88,77.6999 229,74.5C 230.786,72.9007 232.953,72.0674 235.5,72C 234.167,70.1598 234.334,69.6598 236,70.5C 236.309,69.2341 236.809,68.0674 237.5,67C 236.833,66.6667 236.167,66.3333 235.5,66C 240.594,64.5422 240.261,63.7088 234.5,63.5C 234.815,61.7741 234.981,60.1075 235,58.5C 231.899,57.5335 229.066,56.2002 226.5,54.5C 227.624,53.086 228.624,51.586 229.5,50C 228.288,48.8932 228.621,48.3932 230.5,48.5 Z"/></g>
<g><path style="opacity:1" fill="#3f3f3f" d="M 134.5,88.5 C 137.579,89.304 140.579,90.304 143.5,91.5C 145.178,94.6316 144.511,97.1316 141.5,99C 142.833,100 144.167,101 145.5,102C 145.043,102.414 144.709,102.914 144.5,103.5C 147.086,104.48 149.753,104.813 152.5,104.5C 152.5,105.5 152.5,106.5 152.5,107.5C 154.541,107.146 156.374,107.146 158,107.5C 158.273,105.899 158.773,104.399 159.5,103C 159.167,102.667 158.833,102.333 158.5,102C 159.5,100 160.5,100 161.5,102C 162.061,103.566 161.394,104.899 159.5,106C 159.619,107.145 159.952,108.312 160.5,109.5C 159.209,110.473 159.209,111.473 160.5,112.5C 160.167,112.833 159.833,113.167 159.5,113.5C 158.14,111.152 156.473,110.985 154.5,113C 156.986,113.705 156.986,114.538 154.5,115.5C 153.833,115.5 153.5,115.833 153.5,116.5C 151.599,116.433 149.766,116.767 148,117.5C 146.941,117.37 146.108,116.87 145.5,116C 147.872,113.156 147.706,110.323 145,107.5C 144.667,107.833 144.333,108.167 144,108.5C 144.598,105.382 143.265,103.048 140,101.5C 137.573,102.567 137.073,101.9 138.5,99.5C 139.613,98.0536 139.78,96.3869 139,94.5C 136.266,93.6383 136.099,92.805 138.5,92C 136.907,91.0513 135.574,89.8846 134.5,88.5 Z"/></g>
<g><path style="opacity:1" fill="#1a1a1a" d="M 180.5,107.5 C 188.321,110.141 196.154,110.141 204,107.5C 207.228,108.644 208.728,110.978 208.5,114.5C 209.84,117.145 210.174,119.812 209.5,122.5C 202.589,125.413 197.256,130.08 193.5,136.5C 192.432,137.434 191.099,137.768 189.5,137.5C 189.5,135.5 189.5,133.5 189.5,131.5C 190.765,130.521 192.099,129.521 193.5,128.5C 192.253,126.958 192.253,125.458 193.5,124C 192.167,123.333 190.833,123.333 189.5,124C 190.634,125.016 190.301,125.683 188.5,126C 191.279,126.149 191.779,126.983 190,128.5C 186.981,128.646 183.815,128.312 180.5,127.5C 181.695,126.033 181.695,124.533 180.5,123C 180.759,121.739 181.426,120.739 182.5,120C 181.062,119.781 179.729,119.281 178.5,118.5C 179.167,118.167 179.833,117.833 180.5,117.5C 179.924,114.876 178.59,114.209 176.5,115.5C 175.152,113.539 173.819,113.372 172.5,115C 173.623,116.044 174.956,116.71 176.5,117C 174.804,118.266 172.971,118.1 171,116.5C 170.692,117.308 170.192,117.975 169.5,118.5C 168.549,117.674 167.549,117.508 166.5,118C 166.07,118.92 165.736,119.753 165.5,120.5C 164.5,119.5 163.5,118.5 162.5,117.5C 163.688,117.693 165.022,117.193 166.5,116C 166.167,115.667 165.833,115.333 165.5,115C 167.481,114.395 167.815,113.395 166.5,112C 167.701,111.097 168.535,109.931 169,108.5C 170.667,111.167 172.333,111.167 174,108.5C 174.414,108.957 174.914,109.291 175.5,109.5C 176.85,108.05 178.516,107.383 180.5,107.5 Z"/></g>
<g><path style="opacity:1" fill="#2d2d2d" d="M 138.5,99.5 C 137.073,101.9 137.573,102.567 140,101.5C 143.265,103.048 144.598,105.382 144,108.5C 144.333,108.167 144.667,107.833 145,107.5C 147.706,110.323 147.872,113.156 145.5,116C 146.108,116.87 146.941,117.37 148,117.5C 149.766,116.767 151.599,116.433 153.5,116.5C 153.611,117.117 153.944,117.617 154.5,118C 153.069,118.465 151.903,119.299 151,120.5C 149.612,119.446 148.112,119.28 146.5,120C 147.696,120.654 147.696,121.154 146.5,121.5C 145.315,120.147 143.981,118.98 142.5,118C 143.956,117.577 144.456,116.744 144,115.5C 142.951,116.517 141.784,116.684 140.5,116C 140.616,114.732 140.949,113.398 141.5,112C 138.536,111.16 138.203,110.16 140.5,109C 137.704,107.712 134.871,107.212 132,107.5C 128.956,109.792 128.289,109.126 130,105.5C 130.333,105.833 130.667,106.167 131,106.5C 131.333,105.5 131.667,104.5 132,103.5C 132.333,103.833 132.667,104.167 133,104.5C 134.067,103.809 135.234,103.309 136.5,103C 135.833,102.667 135.167,102.333 134.5,102C 135.849,101.228 136.682,100.061 137,98.5C 137.383,99.056 137.883,99.3893 138.5,99.5 Z"/></g>
<g><path style="opacity:1" fill="#1f1f1f" d="M 209.5,110.5 C 212.095,108.676 215.095,107.343 218.5,106.5C 220.754,105.585 222.754,104.252 224.5,102.5C 228.913,106.824 231.913,111.99 233.5,118C 230.629,128.687 224.462,131.187 215,125.5C 212.637,120.566 210.804,115.566 209.5,110.5 Z"/></g>
<g><path style="opacity:1" fill="#292929" d="M 173.5,102.5 C 175.695,104.424 178.028,106.091 180.5,107.5C 178.516,107.383 176.85,108.05 175.5,109.5C 174.914,109.291 174.414,108.957 174,108.5C 172.333,111.167 170.667,111.167 169,108.5C 168.535,109.931 167.701,111.097 166.5,112C 167.815,113.395 167.481,114.395 165.5,115C 165.833,115.333 166.167,115.667 166.5,116C 165.022,117.193 163.688,117.693 162.5,117.5C 163.5,118.5 164.5,119.5 165.5,120.5C 165.736,119.753 166.07,118.92 166.5,118C 167.549,117.508 168.549,117.674 169.5,118.5C 170.192,117.975 170.692,117.308 171,116.5C 172.971,118.1 174.804,118.266 176.5,117C 174.956,116.71 173.623,116.044 172.5,115C 173.819,113.372 175.152,113.539 176.5,115.5C 178.59,114.209 179.924,114.876 180.5,117.5C 179.833,117.833 179.167,118.167 178.5,118.5C 179.729,119.281 181.062,119.781 182.5,120C 181.426,120.739 180.759,121.739 180.5,123C 181.695,124.533 181.695,126.033 180.5,127.5C 183.815,128.312 186.981,128.646 190,128.5C 191.779,126.983 191.279,126.149 188.5,126C 190.301,125.683 190.634,125.016 189.5,124C 190.833,123.333 192.167,123.333 193.5,124C 192.253,125.458 192.253,126.958 193.5,128.5C 192.099,129.521 190.765,130.521 189.5,131.5C 189.167,131.5 188.833,131.5 188.5,131.5C 181.687,130.509 174.687,130.175 167.5,130.5C 167.5,128.833 167.5,127.167 167.5,125.5C 168.483,124.15 169.816,123.15 171.5,122.5C 168.193,120.83 166.193,121.83 165.5,125.5C 165.167,125.5 164.833,125.5 164.5,125.5C 162.49,123.977 162.156,122.144 163.5,120C 162.24,118.887 161.073,118.72 160,119.5C 158.5,117.531 156.667,116.198 154.5,115.5C 156.986,114.538 156.986,113.705 154.5,113C 156.473,110.985 158.14,111.152 159.5,113.5C 159.833,113.167 160.167,112.833 160.5,112.5C 159.209,111.473 159.209,110.473 160.5,109.5C 162.215,108.081 164.048,106.747 166,105.5C 166.333,105.833 166.667,106.167 167,106.5C 167.034,104.82 167.201,103.32 167.5,102C 169.488,101.82 171.488,101.986 173.5,102.5 Z"/></g>
<g><path style="opacity:1" fill="#272727" d="M 277.5,116.5 C 278.958,123.396 279.958,130.396 280.5,137.5C 277.924,137.384 275.424,137.051 273,136.5C 271.699,137.098 270.865,138.098 270.5,139.5C 271.167,139.833 271.833,140.167 272.5,140.5C 271.675,141.386 270.675,141.719 269.5,141.5C 269.649,140.448 269.483,139.448 269,138.5C 267.542,140.524 265.709,140.691 263.5,139C 265.974,138.887 267.974,137.887 269.5,136C 268.672,135.085 267.672,134.419 266.5,134C 269.167,132.333 269.167,130.667 266.5,129C 266.833,128.667 267.167,128.333 267.5,128C 266.328,127.581 265.328,126.915 264.5,126C 266.878,125.489 269.212,124.822 271.5,124C 268.43,124.992 265.43,124.659 262.5,123C 263.5,122.667 264.5,122.333 265.5,122C 262.384,120.376 260.55,121.543 260,125.5C 259.086,124.346 258.253,124.513 257.5,126C 258.711,126.893 258.711,127.726 257.5,128.5C 255.983,129.911 254.649,129.744 253.5,128C 257.007,126.659 257.007,124.826 253.5,122.5C 255.021,122.12 256.687,121.954 258.5,122C 255.037,120.36 255.371,118.693 259.5,117C 257.645,116.578 255.811,116.078 254,115.5C 251.99,117.927 249.49,118.76 246.5,118C 246.833,117 247.167,116 247.5,115C 245.559,114.696 243.893,113.863 242.5,112.5C 241.549,113.326 240.549,113.492 239.5,113C 243.86,111.788 245.027,109.288 243,105.5C 240.724,107.307 240.557,108.807 242.5,110C 239.314,110.258 237.314,111.925 236.5,115C 240.006,116.141 239.673,117.307 235.5,118.5C 235.416,115.673 234.75,113.006 233.5,110.5C 233.511,108.983 234.177,107.816 235.5,107C 237.332,106.252 238.999,105.252 240.5,104C 242.5,103.333 244.5,103.333 246.5,104C 245.346,104.914 245.513,105.747 247,106.5C 247.36,104.579 248.194,102.912 249.5,101.5C 249.833,101.833 250.167,102.167 250.5,102.5C 248.34,104.093 248.173,105.76 250,107.5C 251.506,104.526 253.172,104.193 255,106.5C 256.388,105.446 257.888,105.28 259.5,106C 261.679,106.442 262.345,107.442 261.5,109C 262.715,111.096 263.549,110.929 264,108.5C 265.171,109.893 266.671,110.727 268.5,111C 267.051,112.117 265.384,112.784 263.5,113C 265.769,113.758 267.936,113.591 270,112.5C 270.49,113.793 270.657,115.127 270.5,116.5C 272.882,115.454 275.215,115.454 277.5,116.5 Z"/></g>
<g><path style="opacity:1" fill="#1a1a1a" d="M 105.5,134.5 C 105.511,136.017 106.177,137.184 107.5,138C 104.635,143.309 100.302,144.809 94.5,142.5C 89.2783,139.62 84.6117,135.953 80.5,131.5C 84.6227,130.027 88.1227,127.694 91,124.5C 96.2804,127.22 101.114,130.554 105.5,134.5 Z"/></g>
<g><path style="opacity:1" fill="#e4e4e4" d="M 137.5,125.5 C 137.5,127.5 137.5,129.5 137.5,131.5C 146.833,131.5 156.167,131.5 165.5,131.5C 165.5,129.5 165.5,127.5 165.5,125.5C 166.193,121.83 168.193,120.83 171.5,122.5C 169.816,123.15 168.483,124.15 167.5,125.5C 166.539,127.265 166.205,129.265 166.5,131.5C 173.833,131.5 181.167,131.5 188.5,131.5C 188.833,131.5 189.167,131.5 189.5,131.5C 189.5,133.5 189.5,135.5 189.5,137.5C 191.099,137.768 192.432,137.434 193.5,136.5C 194.434,137.568 194.768,138.901 194.5,140.5C 192.544,138.825 191.211,139.158 190.5,141.5C 190.737,142.791 190.404,143.791 189.5,144.5C 188.325,140.958 187.659,137.291 187.5,133.5C 185.5,133.5 183.5,133.5 181.5,133.5C 180.833,137.5 180.167,137.5 179.5,133.5C 177.052,132.527 174.385,132.194 171.5,132.5C 171.216,134.415 171.549,136.081 172.5,137.5C 176.871,140.022 177.538,143.355 174.5,147.5C 167.037,149.872 164.204,147.206 166,139.5C 166.816,138.177 167.983,137.511 169.5,137.5C 170.451,136.081 170.784,134.415 170.5,132.5C 167.5,132.5 164.5,132.5 161.5,132.5C 161.5,133.833 161.5,135.167 161.5,136.5C 161.167,136.5 160.833,136.5 160.5,136.5C 160.5,135.167 160.5,133.833 160.5,132.5C 157.615,132.194 154.948,132.527 152.5,133.5C 151.833,141.5 151.167,141.5 150.5,133.5C 148.052,132.527 145.385,132.194 142.5,132.5C 142.5,133.833 142.5,135.167 142.5,136.5C 142.19,137.738 141.69,137.738 141,136.5C 140.517,135.552 140.351,134.552 140.5,133.5C 138.052,132.527 135.385,132.194 132.5,132.5C 132.216,134.415 132.549,136.081 133.5,137.5C 136.525,138.033 137.858,139.867 137.5,143C 136.708,148.393 133.708,149.893 128.5,147.5C 125.462,143.355 126.129,140.022 130.5,137.5C 131.451,136.081 131.784,134.415 131.5,132.5C 128.615,132.194 125.948,132.527 123.5,133.5C 122.833,137.5 122.167,137.5 121.5,133.5C 119.5,133.5 117.5,133.5 115.5,133.5C 115.425,136.206 115.092,138.873 114.5,141.5C 113.833,141.167 113.167,140.833 112.5,140.5C 112.5,139.833 112.167,139.5 111.5,139.5C 110.737,138.732 109.737,138.232 108.5,138C 108.728,137.601 109.062,137.435 109.5,137.5C 110.833,137.5 112.167,137.5 113.5,137.5C 113.244,135.208 113.577,133.041 114.5,131C 121.492,130.5 128.492,130.334 135.5,130.5C 136.428,126.542 135.094,123.875 131.5,122.5C 134.526,121.346 136.526,122.346 137.5,125.5 Z"/></g>
<g><path style="opacity:1" fill="#898989" d="M 137.5,125.5 C 138.451,126.919 138.784,128.585 138.5,130.5C 147.167,130.5 155.833,130.5 164.5,130.5C 164.5,128.833 164.5,127.167 164.5,125.5C 164.833,125.5 165.167,125.5 165.5,125.5C 165.5,127.5 165.5,129.5 165.5,131.5C 156.167,131.5 146.833,131.5 137.5,131.5C 137.5,129.5 137.5,127.5 137.5,125.5 Z"/></g>
<g><path style="opacity:1" fill="#999999" d="M 167.5,125.5 C 167.5,127.167 167.5,128.833 167.5,130.5C 174.687,130.175 181.687,130.509 188.5,131.5C 181.167,131.5 173.833,131.5 166.5,131.5C 166.205,129.265 166.539,127.265 167.5,125.5 Z"/></g>
<g><path style="opacity:1" fill="#7d7d7d" d="M 123.5,133.5 C 125.948,132.527 128.615,132.194 131.5,132.5C 131.784,134.415 131.451,136.081 130.5,137.5C 130.5,136.167 130.5,134.833 130.5,133.5C 128.167,133.5 125.833,133.5 123.5,133.5 Z"/></g>
<g><path style="opacity:1" fill="#8b8b8b" d="M 140.5,133.5 C 138.167,133.5 135.833,133.5 133.5,133.5C 133.5,134.833 133.5,136.167 133.5,137.5C 132.549,136.081 132.216,134.415 132.5,132.5C 135.385,132.194 138.052,132.527 140.5,133.5 Z"/></g>
<g><path style="opacity:1" fill="#7b7b7b" d="M 150.5,133.5 C 148.167,133.5 145.833,133.5 143.5,133.5C 143.737,134.791 143.404,135.791 142.5,136.5C 142.5,135.167 142.5,133.833 142.5,132.5C 145.385,132.194 148.052,132.527 150.5,133.5 Z"/></g>
<g><path style="opacity:1" fill="#797979" d="M 152.5,133.5 C 154.948,132.527 157.615,132.194 160.5,132.5C 160.5,133.833 160.5,135.167 160.5,136.5C 159.596,135.791 159.263,134.791 159.5,133.5C 157.167,133.5 154.833,133.5 152.5,133.5 Z"/></g>
<g><path style="opacity:1" fill="#929292" d="M 169.5,137.5 C 169.5,136.167 169.5,134.833 169.5,133.5C 167.167,133.5 164.833,133.5 162.5,133.5C 162.737,134.791 162.404,135.791 161.5,136.5C 161.5,135.167 161.5,133.833 161.5,132.5C 164.5,132.5 167.5,132.5 170.5,132.5C 170.784,134.415 170.451,136.081 169.5,137.5 Z"/></g>
<g><path style="opacity:1" fill="#7c7c7c" d="M 179.5,133.5 C 177.167,133.5 174.833,133.5 172.5,133.5C 172.5,134.833 172.5,136.167 172.5,137.5C 171.549,136.081 171.216,134.415 171.5,132.5C 174.385,132.194 177.052,132.527 179.5,133.5 Z"/></g>
<g><path style="opacity:1" fill="#d4d4d4" d="M 226.5,147.5 C 233.967,150.377 241.3,153.544 248.5,157C 238.775,157.693 229.108,157.193 219.5,155.5C 221.856,152.814 224.189,150.147 226.5,147.5 Z"/></g>
<g><path style="opacity:1" fill="#262626" d="M 227.5,149.5 C 231.808,151.318 236.141,153.152 240.5,155C 234.442,155.739 228.442,155.406 222.5,154C 224.66,153.004 226.327,151.504 227.5,149.5 Z"/></g>
<g><path style="opacity:1" fill="#d1d1d1" d="M 74.5,147.5 C 77.8991,149.388 80.8991,151.888 83.5,155C 83.1667,155.333 82.8333,155.667 82.5,156C 74.9917,156.383 67.4917,156.883 60,157.5C 58.1667,157.167 56.3333,156.833 54.5,156.5C 61.2585,153.479 67.9252,150.479 74.5,147.5 Z"/></g>
<g><path style="opacity:1" fill="#1a1a1a" d="M 74.5,149.5 C 76.2959,150.793 77.9625,152.293 79.5,154C 73.8024,154.542 68.1357,154.875 62.5,155C 66.71,153.391 70.71,151.558 74.5,149.5 Z"/></g>
<g><path style="opacity:1" fill="#dddddd" d="M 225.5,83.5 C 226.167,83.5 226.833,83.5 227.5,83.5C 228.341,85.3792 228.675,87.3792 228.5,89.5C 228.095,92.9865 227.095,96.3199 225.5,99.5C 228.223,103.208 230.89,106.875 233.5,110.5C 234.75,113.006 235.416,115.673 235.5,118.5C 234.39,124.947 230.724,129.28 224.5,131.5C 217.383,140.561 208.05,145.727 196.5,147C 195.506,148.329 194.506,149.662 193.5,151C 194.233,152.766 194.567,154.599 194.5,156.5C 196.467,156.261 198.301,156.594 200,157.5C 202.482,154.051 205.315,150.884 208.5,148C 212.667,147.167 216.833,146.333 221,145.5C 221.833,145.833 222.667,146.167 223.5,146.5C 217.972,154.032 210.972,159.699 202.5,163.5C 201.253,165.323 200.586,167.323 200.5,169.5C 203.066,169.344 205.566,169.678 208,170.5C 211.565,168.633 215.065,166.633 218.5,164.5C 222.51,166.169 226.51,167.836 230.5,169.5C 225.357,175.629 218.69,178.295 210.5,177.5C 209.141,179.306 209.475,180.806 211.5,182C 209.75,184.513 209.584,187.346 211,190.5C 214.672,193.342 218.172,196.342 221.5,199.5C 218.661,201.42 215.661,203.087 212.5,204.5C 210.139,201.623 208.139,198.456 206.5,195C 205.167,194.333 203.833,194.333 202.5,195C 188.793,212.27 170.96,221.436 149,222.5C 129.086,219.959 112.919,210.793 100.5,195C 99.1667,194.333 97.8333,194.333 96.5,195C 94.861,198.456 92.861,201.623 90.5,204.5C 87.3388,203.087 84.3388,201.42 81.5,199.5C 84.8276,196.342 88.3276,193.342 92,190.5C 93.4164,187.346 93.2497,184.513 91.5,182C 93.5254,180.806 93.8587,179.306 92.5,177.5C 84.3102,178.295 77.6435,175.629 72.5,169.5C 76.3038,167.452 80.3038,165.785 84.5,164.5C 87.8333,166.5 91.1667,168.5 94.5,170.5C 97.0841,169.607 99.7508,169.274 102.5,169.5C 102.327,166.821 101.327,164.487 99.5,162.5C 91.3662,159.036 84.6996,153.703 79.5,146.5C 80.1667,146.167 80.8333,145.833 81.5,145.5C 85.832,146.333 90.1654,147.166 94.5,148C 97.685,150.884 100.518,154.051 103,157.5C 104.699,156.594 106.533,156.261 108.5,156.5C 108.357,154.738 108.691,153.071 109.5,151.5C 108.352,149.851 107.019,148.351 105.5,147C 101.132,146.707 97.1323,145.54 93.5,143.5C 93.5,142.833 93.8333,142.5 94.5,142.5C 100.302,144.809 104.635,143.309 107.5,138C 106.177,137.184 105.511,136.017 105.5,134.5C 105.5,133.833 105.833,133.5 106.5,133.5C 107.488,134.795 108.488,136.128 109.5,137.5C 109.062,137.435 108.728,137.601 108.5,138C 109.737,138.232 110.737,138.732 111.5,139.5C 105.631,141.607 105.131,144.607 110,148.5C 110.84,145.798 111.673,143.132 112.5,140.5C 113.167,140.833 113.833,141.167 114.5,141.5C 113.07,147.051 111.403,152.551 109.5,158C 111.017,159.684 112.683,161.184 114.5,162.5C 114.5,163.167 114.167,163.5 113.5,163.5C 112.185,162.524 110.852,161.524 109.5,160.5C 108.248,162.001 107.248,163.668 106.5,165.5C 107.909,165.654 109.576,165.821 111.5,166C 112.685,167.353 114.019,168.52 115.5,169.5C 117.253,167.739 119.253,166.406 121.5,165.5C 123.747,166.406 125.747,167.739 127.5,169.5C 129.253,167.739 131.253,166.406 133.5,165.5C 135.747,166.406 137.747,167.739 139.5,169.5C 141.253,167.739 143.253,166.406 145.5,165.5C 147.747,166.406 149.747,167.739 151.5,169.5C 153.253,167.739 155.253,166.406 157.5,165.5C 159.747,166.406 161.747,167.739 163.5,169.5C 165.253,167.739 167.253,166.406 169.5,165.5C 171.747,166.406 173.747,167.739 175.5,169.5C 177.253,167.739 179.253,166.406 181.5,165.5C 183.747,166.406 185.747,167.739 187.5,169.5C 188.981,168.52 190.315,167.353 191.5,166C 193.424,165.821 195.091,165.654 196.5,165.5C 195.752,163.668 194.752,162.001 193.5,160.5C 192.148,161.524 190.815,162.524 189.5,163.5C 188.833,163.5 188.5,163.167 188.5,162.5C 190.317,161.184 191.983,159.684 193.5,158C 191.856,153.571 190.523,149.071 189.5,144.5C 190.404,143.791 190.737,142.791 190.5,141.5C 191.199,143.556 192.199,145.556 193.5,147.5C 195.615,145.385 195.949,143.051 194.5,140.5C 194.768,138.901 194.434,137.568 193.5,136.5C 197.256,130.08 202.589,125.413 209.5,122.5C 210.174,119.812 209.84,117.145 208.5,114.5C 209.434,113.432 209.768,112.099 209.5,110.5C 210.804,115.566 212.637,120.566 215,125.5C 224.462,131.187 230.629,128.687 233.5,118C 231.913,111.99 228.913,106.824 224.5,102.5C 222.754,104.252 220.754,105.585 218.5,106.5C 218.5,105.833 218.167,105.5 217.5,105.5C 220.19,103.807 222.19,101.473 223.5,98.5C 224.537,97.0697 225.204,95.403 225.5,93.5C 225.5,90.1667 225.5,86.8333 225.5,83.5 Z"/></g>
<g><path style="opacity:1" fill="#c6c6c6" d="M 188.5,162.5 C 188.5,163.167 188.833,163.5 189.5,163.5C 188.399,164.598 187.066,164.765 185.5,164C 184.315,162.647 182.981,161.48 181.5,160.5C 179.747,162.261 177.747,163.594 175.5,164.5C 173.253,163.594 171.253,162.261 169.5,160.5C 167.747,162.261 165.747,163.594 163.5,164.5C 161.253,163.594 159.253,162.261 157.5,160.5C 155.747,162.261 153.747,163.594 151.5,164.5C 149.253,163.594 147.253,162.261 145.5,160.5C 143.747,162.261 141.747,163.594 139.5,164.5C 137.253,163.594 135.253,162.261 133.5,160.5C 131.747,162.261 129.747,163.594 127.5,164.5C 125.253,163.594 123.253,162.261 121.5,160.5C 120.019,161.48 118.685,162.647 117.5,164C 115.934,164.765 114.601,164.598 113.5,163.5C 114.167,163.5 114.5,163.167 114.5,162.5C 116.991,162.16 119.158,161.16 121,159.5C 123.271,160.271 125.438,161.271 127.5,162.5C 129.329,161.535 131.162,160.535 133,159.5C 135.271,160.271 137.438,161.271 139.5,162.5C 141.5,161.5 143.5,160.5 145.5,159.5C 147.5,160.5 149.5,161.5 151.5,162.5C 153.5,161.5 155.5,160.5 157.5,159.5C 159.5,160.5 161.5,161.5 163.5,162.5C 165.5,161.5 167.5,160.5 169.5,159.5C 171.5,160.5 173.5,161.5 175.5,162.5C 177.747,161.594 179.747,160.261 181.5,158.5C 183.303,159.137 184.636,160.303 185.5,162C 186.448,162.483 187.448,162.649 188.5,162.5 Z"/></g>
<g><path style="opacity:1" fill="#1b1b1b" d="M 113.5,163.5 C 114.601,164.598 115.934,164.765 117.5,164C 118.685,162.647 120.019,161.48 121.5,160.5C 123.253,162.261 125.253,163.594 127.5,164.5C 129.747,163.594 131.747,162.261 133.5,160.5C 135.253,162.261 137.253,163.594 139.5,164.5C 141.747,163.594 143.747,162.261 145.5,160.5C 147.253,162.261 149.253,163.594 151.5,164.5C 153.747,163.594 155.747,162.261 157.5,160.5C 159.253,162.261 161.253,163.594 163.5,164.5C 165.747,163.594 167.747,162.261 169.5,160.5C 171.253,162.261 173.253,163.594 175.5,164.5C 177.747,163.594 179.747,162.261 181.5,160.5C 182.981,161.48 184.315,162.647 185.5,164C 187.066,164.765 188.399,164.598 189.5,163.5C 190.815,162.524 192.148,161.524 193.5,160.5C 194.752,162.001 195.752,163.668 196.5,165.5C 195.091,165.654 193.424,165.821 191.5,166C 190.315,167.353 188.981,168.52 187.5,169.5C 185.747,167.739 183.747,166.406 181.5,165.5C 179.253,166.406 177.253,167.739 175.5,169.5C 173.747,167.739 171.747,166.406 169.5,165.5C 167.253,166.406 165.253,167.739 163.5,169.5C 161.747,167.739 159.747,166.406 157.5,165.5C 155.253,166.406 153.253,167.739 151.5,169.5C 149.747,167.739 147.747,166.406 145.5,165.5C 143.253,166.406 141.253,167.739 139.5,169.5C 137.747,167.739 135.747,166.406 133.5,165.5C 131.253,166.406 129.253,167.739 127.5,169.5C 125.747,167.739 123.747,166.406 121.5,165.5C 119.253,166.406 117.253,167.739 115.5,169.5C 114.019,168.52 112.685,167.353 111.5,166C 109.576,165.821 107.909,165.654 106.5,165.5C 107.248,163.668 108.248,162.001 109.5,160.5C 110.852,161.524 112.185,162.524 113.5,163.5 Z"/></g>
<g><path style="opacity:1" fill="#252525" d="M 195.5,157.5 C 200.521,158.393 201.687,161.059 199,165.5C 197.546,162.929 196.38,160.262 195.5,157.5 Z"/></g>
<g><path style="opacity:1" fill="#252525" d="M 104.5,157.5 C 105.675,157.281 106.675,157.614 107.5,158.5C 106.333,160.833 105.167,163.167 104,165.5C 101.992,162.705 102.158,160.038 104.5,157.5 Z"/></g>
<g><path style="opacity:1" fill="#1f1f1f" d="M 212.5,148.5 C 214.527,148.338 216.527,148.505 218.5,149C 216.667,150.833 214.833,152.667 213,154.5C 212.035,152.74 210.868,152.406 209.5,153.5C 209.977,154.478 210.643,155.311 211.5,156C 200.804,162.639 199.304,161.139 207,151.5C 208.719,150.131 210.552,149.131 212.5,148.5 Z"/></g>
<g><path style="opacity:1" fill="#1e1e1e" d="M 84.5,149.5 C 84.9169,148.876 85.5836,148.543 86.5,148.5C 89.1454,149.108 91.8121,149.608 94.5,150C 96.8333,153 99.1667,156 101.5,159C 100.975,159.692 100.308,160.192 99.5,160.5C 96.6714,159.253 94.0048,157.753 91.5,156C 92.9277,152.526 92.4277,152.026 90,154.5C 88.2962,152.627 86.4628,150.96 84.5,149.5 Z"/></g>
<g><path style="opacity:1" fill="#272727" d="M 194.5,140.5 C 195.949,143.051 195.615,145.385 193.5,147.5C 192.199,145.556 191.199,143.556 190.5,141.5C 191.211,139.158 192.544,138.825 194.5,140.5 Z"/></g>
<g><path style="opacity:1" fill="#222222" d="M 111.5,139.5 C 112.167,139.5 112.5,139.833 112.5,140.5C 111.673,143.132 110.84,145.798 110,148.5C 105.131,144.607 105.631,141.607 111.5,139.5 Z"/></g>
<g><path style="opacity:1" fill="#1a1a1a" d="M 123.5,133.5 C 125.833,133.5 128.167,133.5 130.5,133.5C 130.5,134.833 130.5,136.167 130.5,137.5C 126.129,140.022 125.462,143.355 128.5,147.5C 133.708,149.893 136.708,148.393 137.5,143C 137.858,139.867 136.525,138.033 133.5,137.5C 133.5,136.167 133.5,134.833 133.5,133.5C 135.833,133.5 138.167,133.5 140.5,133.5C 140.351,134.552 140.517,135.552 141,136.5C 141.69,137.738 142.19,137.738 142.5,136.5C 143.404,135.791 143.737,134.791 143.5,133.5C 145.833,133.5 148.167,133.5 150.5,133.5C 151.167,141.5 151.833,141.5 152.5,133.5C 154.833,133.5 157.167,133.5 159.5,133.5C 159.263,134.791 159.596,135.791 160.5,136.5C 160.833,136.5 161.167,136.5 161.5,136.5C 162.404,135.791 162.737,134.791 162.5,133.5C 164.833,133.5 167.167,133.5 169.5,133.5C 169.5,134.833 169.5,136.167 169.5,137.5C 167.983,137.511 166.816,138.177 166,139.5C 164.204,147.206 167.037,149.872 174.5,147.5C 177.538,143.355 176.871,140.022 172.5,137.5C 172.5,136.167 172.5,134.833 172.5,133.5C 174.833,133.5 177.167,133.5 179.5,133.5C 180.167,137.5 180.833,137.5 181.5,133.5C 183.5,133.5 185.5,133.5 187.5,133.5C 187.659,137.291 188.325,140.958 189.5,144.5C 190.523,149.071 191.856,153.571 193.5,158C 191.983,159.684 190.317,161.184 188.5,162.5C 187.448,162.649 186.448,162.483 185.5,162C 184.636,160.303 183.303,159.137 181.5,158.5C 179.747,160.261 177.747,161.594 175.5,162.5C 173.5,161.5 171.5,160.5 169.5,159.5C 167.5,160.5 165.5,161.5 163.5,162.5C 161.5,161.5 159.5,160.5 157.5,159.5C 155.5,160.5 153.5,161.5 151.5,162.5C 149.5,161.5 147.5,160.5 145.5,159.5C 143.5,160.5 141.5,161.5 139.5,162.5C 137.438,161.271 135.271,160.271 133,159.5C 131.162,160.535 129.329,161.535 127.5,162.5C 125.438,161.271 123.271,160.271 121,159.5C 119.158,161.16 116.991,162.16 114.5,162.5C 112.683,161.184 111.017,159.684 109.5,158C 111.403,152.551 113.07,147.051 114.5,141.5C 115.092,138.873 115.425,136.206 115.5,133.5C 117.5,133.5 119.5,133.5 121.5,133.5C 122.167,137.5 122.833,137.5 123.5,133.5 Z"/></g>
<g><path style="opacity:1" fill="#1c1c1c" d="M 168.5,139.5 C 173.214,139.201 174.88,141.201 173.5,145.5C 167.74,147.213 166.074,145.213 168.5,139.5 Z"/></g>
<g><path style="opacity:1" fill="#202020" d="M 129.5,139.5 C 135.158,138.679 136.825,140.846 134.5,146C 128.731,147.178 127.064,145.011 129.5,139.5 Z"/></g>
<g><path style="opacity:1" fill="#1d1d1d" d="M 209.5,124.5 C 213.098,127.307 217.098,129.64 221.5,131.5C 215.393,139.557 207.393,143.224 197.5,142.5C 195.238,139.913 195.071,137.246 197,134.5C 200.963,130.787 205.129,127.454 209.5,124.5 Z"/></g>
<g><path style="opacity:1" fill="#202020" d="M 83.5,166.5 C 86.9396,168.055 90.2729,169.888 93.5,172C 90.5941,174.584 87.2608,175.084 83.5,173.5C 84.3256,172.549 84.4922,171.549 84,170.5C 83,171.833 82,173.167 81,174.5C 79.0748,173.12 77.2415,171.62 75.5,170C 78.3093,168.907 80.976,167.74 83.5,166.5 Z"/></g>
<g><path style="opacity:1" fill="#171717" d="M 120.5,166.5 C 122.822,167.816 125.156,169.149 127.5,170.5C 129.747,169.594 131.747,168.261 133.5,166.5C 135.253,168.261 137.253,169.594 139.5,170.5C 141.747,169.594 143.747,168.261 145.5,166.5C 147.253,168.261 149.253,169.594 151.5,170.5C 153.747,169.594 155.747,168.261 157.5,166.5C 159.253,168.261 161.253,169.594 163.5,170.5C 165.747,169.594 167.747,168.261 169.5,166.5C 171.253,168.261 173.253,169.594 175.5,170.5C 177.747,169.594 179.747,168.261 181.5,166.5C 183.253,168.261 185.253,169.594 187.5,170.5C 189.5,169.5 191.5,168.5 193.5,167.5C 199.416,171.416 204.416,176.416 208.5,182.5C 198.103,200.362 183.103,212.529 163.5,219C 145.549,222.794 129.549,218.794 115.5,207C 107.189,199.864 100.189,191.697 94.5,182.5C 98.3348,177.168 102.668,172.335 107.5,168C 108.833,167.333 110.167,167.333 111.5,168C 115.105,171.518 118.105,171.018 120.5,166.5 Z"/></g>
<g><path style="opacity:1" fill="#1e1e1e" d="M 217.5,166.5 C 220.767,167.756 224.101,168.923 227.5,170C 225.759,171.62 223.925,173.12 222,174.5C 220.748,172.999 219.748,171.332 219,169.5C 218.28,171.112 218.446,172.612 219.5,174C 216.5,174.667 213.5,174.667 210.5,174C 209.549,173.282 209.383,172.449 210,171.5C 212.824,170.182 215.324,168.515 217.5,166.5 Z"/></g>
<g><path style="opacity:1" fill="#1f1f1f" d="M 96.5,171.5 C 97.675,171.281 98.675,171.614 99.5,172.5C 97.8076,174.359 96.3076,176.359 95,178.5C 94.1668,175.829 94.6668,173.496 96.5,171.5 Z"/></g>
<g><path style="opacity:1" fill="#252525" d="M 202.5,172.5 C 207.345,171.183 209.178,173.183 208,178.5C 206.383,176.237 204.55,174.237 202.5,172.5 Z"/></g>
<g><path style="opacity:1" fill="#d2d2d2" d="M 229.5,172.5 C 230.552,172.351 231.552,172.517 232.5,173C 237.389,177.386 241.722,182.22 245.5,187.5C 245.167,187.833 244.833,188.167 244.5,188.5C 237.477,185.325 230.811,181.659 224.5,177.5C 226.521,176.145 228.188,174.479 229.5,172.5 Z"/></g>
<g><path style="opacity:1" fill="#1f1f1f" d="M 230.5,174.5 C 242.954,185.123 241.954,186.123 227.5,177.5C 228.34,176.265 229.34,175.265 230.5,174.5 Z"/></g>
<g><path style="opacity:1" fill="#dadada" d="M 70.5,172.5 C 74.1497,173.339 76.6497,175.339 78,178.5C 71.5782,181.961 65.0782,185.294 58.5,188.5C 57.479,187.998 57.3123,187.332 58,186.5C 62.0035,181.665 66.1702,176.998 70.5,172.5 Z"/></g>
<g><path style="opacity:1" fill="#212121" d="M 70.5,174.5 C 72.6449,174.738 74.3115,175.738 75.5,177.5C 71.7753,180.2 67.7753,182.033 63.5,183C 66.4234,180.584 68.7567,177.75 70.5,174.5 Z"/></g>
<g><path style="opacity:1" fill="#e4e4e4" d="M 118.5,184.5 C 117.833,183.5 117.167,182.5 116.5,181.5C 115.749,180.427 114.749,180.26 113.5,181C 112.209,182.292 112.209,183.458 113.5,184.5C 114.5,185.167 115.5,185.833 116.5,186.5C 111.932,186.917 110.432,184.917 112,180.5C 116.448,178.339 118.615,179.672 118.5,184.5 Z"/></g>
<g><path style="opacity:1" fill="#dddddd" d="M 185.5,179.5 C 191.158,178.679 192.825,180.846 190.5,186C 184.741,187.139 183.074,184.972 185.5,179.5 Z"/></g>
<g><path style="opacity:1" fill="#1f1f1f" d="M 116.5,181.5 C 116.5,182.5 116.5,183.5 116.5,184.5C 115.5,184.5 114.5,184.5 113.5,184.5C 112.209,183.458 112.209,182.292 113.5,181C 114.749,180.26 115.749,180.427 116.5,181.5 Z"/></g>
<g><path style="opacity:1" fill="#303030" d="M 186.5,180.5 C 190.161,180.35 191.161,181.85 189.5,185C 185.707,185.487 184.707,183.987 186.5,180.5 Z"/></g>
<g><path style="opacity:1" fill="#808080" d="M 116.5,181.5 C 117.167,182.5 117.833,183.5 118.5,184.5C 118.167,185.5 117.5,186.167 116.5,186.5C 115.5,185.833 114.5,185.167 113.5,184.5C 114.5,184.5 115.5,184.5 116.5,184.5C 116.5,183.5 116.5,182.5 116.5,181.5 Z"/></g>
<g><path style="opacity:1" fill="#2c2c2c" d="M 93.5,187.5 C 95.1927,188.475 96.6927,189.808 98,191.5C 98.6877,192.332 98.521,192.998 97.5,193.5C 94.9285,192.272 93.5952,190.272 93.5,187.5 Z"/></g>
<g><path style="opacity:1" fill="#2e2e2e" d="M 207.5,187.5 C 208.497,187.47 209.164,187.97 209.5,189C 208.584,191.817 206.917,192.983 204.5,192.5C 205.763,190.971 206.763,189.305 207.5,187.5 Z"/></g>
<g><path style="opacity:1" fill="#1e1e1e" d="M 91.5,192.5 C 92.9953,192.415 93.9953,193.081 94.5,194.5C 93.2533,197.329 91.7533,199.995 90,202.5C 88.082,201.458 86.2487,200.292 84.5,199C 87.2879,197.281 89.6212,195.115 91.5,192.5 Z"/></g>
<g><path style="opacity:1" fill="#1f1f1f" d="M 209.5,192.5 C 212.603,194.423 215.603,196.59 218.5,199C 216.751,200.292 214.918,201.458 213,202.5C 210.292,199.477 209.126,196.143 209.5,192.5 Z"/></g>
<g><path style="opacity:1" fill="#dbdbdb" d="M 220.5,201.5 C 221.376,201.369 222.043,201.702 222.5,202.5C 219.936,210.774 216.769,218.774 213,226.5C 212.169,219.476 212.336,212.476 213.5,205.5C 216.059,204.392 218.392,203.059 220.5,201.5 Z"/></g>
<g><path style="opacity:1" fill="#1d1d1d" d="M 218.5,204.5 C 219.097,204.735 219.43,205.235 219.5,206C 218,209.833 216.5,213.667 215,217.5C 214.175,213.789 214.341,210.122 215.5,206.5C 216.739,206.058 217.739,205.391 218.5,204.5 Z"/></g>
<g><path style="opacity:1" fill="#d6d6d6" d="M 80.5,201.5 C 83.5963,202.547 86.5963,203.88 89.5,205.5C 90.6644,212.476 90.8311,219.476 90,226.5C 85.9491,218.515 82.7824,210.182 80.5,201.5 Z"/></g>
<g><path style="opacity:1" fill="#1c1c1c" d="M 83.5,204.5 C 84.8068,205.153 86.1401,205.82 87.5,206.5C 88.6586,210.122 88.8253,213.789 88,217.5C 86.1927,213.244 84.6927,208.911 83.5,204.5 Z"/></g>
<g><path style="opacity:1" fill="#2a2a2a" d="M 166.5,244.5 C 165.839,245.718 165.172,247.051 164.5,248.5C 162.554,246.913 161.054,247.246 160,249.5C 158.598,247.027 157.098,247.027 155.5,249.5C 154.18,247.73 152.68,247.397 151,248.5C 149.215,247.76 147.382,247.093 145.5,246.5C 142.103,247.717 138.77,248.717 135.5,249.5C 132.864,250.824 130.198,250.824 127.5,249.5C 124.643,252.164 122.143,251.83 120,248.5C 119.581,249.672 118.915,250.672 118,251.5C 116.383,250.461 115.217,249.461 114.5,248.5C 114.586,247.504 114.252,246.671 113.5,246C 114.449,245.383 115.282,245.549 116,246.5C 116.839,245.376 118.006,244.709 119.5,244.5C 123.877,246.978 128.377,248.312 133,248.5C 134.507,247.495 135.673,246.162 136.5,244.5C 136.669,245.397 137.002,246.397 137.5,247.5C 139.509,245.99 141.342,244.323 143,242.5C 143.787,243.711 144.454,244.711 145,245.5C 146.098,244.616 146.598,243.616 146.5,242.5C 147.72,243.711 148.887,243.711 150,242.5C 150.333,243.5 150.667,244.5 151,245.5C 152.487,244.747 152.654,243.914 151.5,243C 153.447,242.009 155.447,241.675 157.5,242C 156.672,242.915 155.672,243.581 154.5,244C 156.027,245.632 157.693,245.799 159.5,244.5C 160.641,243.575 160.641,242.741 159.5,242C 161.5,241.333 163.5,241.333 165.5,242C 164.044,242.423 163.544,243.256 164,244.5C 164.977,243.226 165.811,243.226 166.5,244.5 Z"/></g>
<g><path style="opacity:1" fill="#282828" d="M 249.5,232.5 C 233.616,249.452 214.282,260.785 191.5,266.5C 191.66,264.801 191.494,263.134 191,261.5C 189.16,260.167 188.66,260.334 189.5,262C 186.049,263.925 184.382,262.758 184.5,258.5C 181.353,258.263 178.353,257.43 175.5,256C 179.165,255.888 182.499,255.888 185.5,256C 184.377,254.956 183.044,254.29 181.5,254C 182.696,253.346 182.696,252.846 181.5,252.5C 180.167,255.167 178.833,255.167 177.5,252.5C 176.914,252.709 176.414,253.043 176,253.5C 172.968,251.666 172.468,249.666 174.5,247.5C 172.993,246.261 171.826,246.595 171,248.5C 170.943,246.09 169.776,244.756 167.5,244.5C 167.274,239.933 168.774,239.6 172,243.5C 176.079,241.867 179.412,242.867 182,246.5C 182.667,245.833 183.333,245.167 184,244.5C 186.453,245.961 188.786,245.294 191,242.5C 191.667,243.167 192.333,243.833 193,244.5C 194.313,243.427 195.813,242.76 197.5,242.5C 202.674,246.486 208.34,247.319 214.5,245C 212.229,244.546 209.896,243.879 207.5,243C 208.46,241.581 209.293,240.081 210,238.5C 210.333,238.833 210.667,239.167 211,239.5C 212.162,237.072 213.829,236.405 216,237.5C 218.437,236.346 220.937,235.846 223.5,236C 221.842,236.725 221.342,237.892 222,239.5C 224.601,239.402 226.934,238.068 229,235.5C 231.401,236.602 233.901,236.769 236.5,236C 237.22,233.878 238.387,233.378 240,234.5C 242.351,233.286 244.851,232.452 247.5,232C 246.131,229.761 246.631,227.927 249,226.5C 251.349,228.744 250.849,229.911 247.5,230C 248.381,230.708 249.047,231.542 249.5,232.5 Z"/></g>
<g><path style="opacity:1" fill="#323232" d="M 111.5,249.5 C 113.942,249.119 114.609,249.786 113.5,251.5C 113.846,252.696 114.346,252.696 115,251.5C 115.309,252.766 115.809,253.933 116.5,255C 115.299,255.903 114.465,257.069 114,258.5C 113.28,256.888 113.446,255.388 114.5,254C 111.697,253.245 109.03,253.578 106.5,255C 106.018,256.008 105.852,257.175 106,258.5C 104.384,257.199 102.884,257.199 101.5,258.5C 93.7664,256.068 86.7664,252.401 80.5,247.5C 80.8283,244.996 82.1616,243.162 84.5,242C 83.8333,241.667 83.1667,241.333 82.5,241C 84.259,239.992 85.4257,238.492 86,236.5C 87.6512,239.221 89.3179,239.554 91,237.5C 94,238.5 97,239.5 100,240.5C 101.667,239.5 103,238.167 104,236.5C 105.368,237.993 105.535,239.493 104.5,241C 106.974,243.428 106.474,243.928 103,242.5C 102.517,243.448 102.351,244.448 102.5,245.5C 105.527,244.491 108.527,244.491 111.5,245.5C 107.807,247.42 107.807,248.753 111.5,249.5 Z"/></g>
<g><path style="opacity:1" fill="#484848" d="M 111.5,249.5 C 112.209,248.596 113.209,248.263 114.5,248.5C 115.217,249.461 116.383,250.461 118,251.5C 118.915,250.672 119.581,249.672 120,248.5C 122.143,251.83 124.643,252.164 127.5,249.5C 130.198,250.824 132.864,250.824 135.5,249.5C 138.247,249.187 140.914,249.52 143.5,250.5C 142.45,252.102 143.117,252.935 145.5,253C 145.167,253.333 144.833,253.667 144.5,254C 149.222,254.394 152.555,256.727 154.5,261C 157.368,262.855 159.868,262.355 162,259.5C 162.5,260.667 163.333,261.5 164.5,262C 163.672,262.915 162.672,263.581 161.5,264C 162.833,265 164.167,266 165.5,267C 164.167,267.333 162.833,267.667 161.5,268C 163.833,268.333 166.167,268.667 168.5,269C 164.955,269.717 161.455,269.55 158,268.5C 156.97,268.836 156.47,269.503 156.5,270.5C 153.833,270.5 151.167,270.5 148.5,270.5C 150.452,269.215 152.118,267.549 153.5,265.5C 152.902,264.205 152.402,262.872 152,261.5C 151.333,263.5 150.667,265.5 150,267.5C 149.792,265.141 149.626,262.974 149.5,261C 150.167,260.667 150.833,260.333 151.5,260C 149.316,259.558 147.316,260.058 145.5,261.5C 146.167,262.167 146.833,262.833 147.5,263.5C 146.047,263.06 144.881,263.726 144,265.5C 143.535,264.069 142.701,262.903 141.5,262C 141.833,261.667 142.167,261.333 142.5,261C 141.175,261.148 140.008,260.982 139,260.5C 138.264,265.828 136.43,266.494 133.5,262.5C 135.404,259.522 137.738,257.689 140.5,257C 139.551,256.383 138.718,256.549 138,257.5C 137.573,254.507 136.406,254.007 134.5,256C 136.686,256.604 136.852,257.77 135,259.5C 133.164,257.396 130.998,257.062 128.5,258.5C 127.902,259.795 127.402,261.128 127,262.5C 124.883,260.457 122.55,260.124 120,261.5C 119.055,261.095 118.388,260.428 118,259.5C 117.634,261.452 116.801,263.118 115.5,264.5C 110.537,263.014 105.871,261.014 101.5,258.5C 102.884,257.199 104.384,257.199 106,258.5C 105.852,257.175 106.018,256.008 106.5,255C 109.03,253.578 111.697,253.245 114.5,254C 113.446,255.388 113.28,256.888 114,258.5C 114.465,257.069 115.299,255.903 116.5,255C 115.809,253.933 115.309,252.766 115,251.5C 114.346,252.696 113.846,252.696 113.5,251.5C 114.609,249.786 113.942,249.119 111.5,249.5 Z"/></g>
<g><path style="opacity:0.968" fill="#545454" d="M 148.5,270.5 C 137.312,269.469 126.312,267.469 115.5,264.5C 116.801,263.118 117.634,261.452 118,259.5C 118.388,260.428 119.055,261.095 120,261.5C 122.55,260.124 124.883,260.457 127,262.5C 127.402,261.128 127.902,259.795 128.5,258.5C 130.998,257.062 133.164,257.396 135,259.5C 136.852,257.77 136.686,256.604 134.5,256C 136.406,254.007 137.573,254.507 138,257.5C 138.718,256.549 139.551,256.383 140.5,257C 137.738,257.689 135.404,259.522 133.5,262.5C 136.43,266.494 138.264,265.828 139,260.5C 140.008,260.982 141.175,261.148 142.5,261C 142.167,261.333 141.833,261.667 141.5,262C 142.701,262.903 143.535,264.069 144,265.5C 144.881,263.726 146.047,263.06 147.5,263.5C 146.833,262.833 146.167,262.167 145.5,261.5C 147.316,260.058 149.316,259.558 151.5,260C 150.833,260.333 150.167,260.667 149.5,261C 149.626,262.974 149.792,265.141 150,267.5C 150.667,265.5 151.333,263.5 152,261.5C 152.402,262.872 152.902,264.205 153.5,265.5C 152.118,267.549 150.452,269.215 148.5,270.5 Z"/></g>
<g><path style="opacity:0.939" fill="#3c3c3c" d="M 166.5,244.5 C 166.833,244.5 167.167,244.5 167.5,244.5C 169.776,244.756 170.943,246.09 171,248.5C 171.826,246.595 172.993,246.261 174.5,247.5C 172.468,249.666 172.968,251.666 176,253.5C 176.414,253.043 176.914,252.709 177.5,252.5C 178.833,255.167 180.167,255.167 181.5,252.5C 182.696,252.846 182.696,253.346 181.5,254C 183.044,254.29 184.377,254.956 185.5,256C 182.499,255.888 179.165,255.888 175.5,256C 178.353,257.43 181.353,258.263 184.5,258.5C 184.382,262.758 186.049,263.925 189.5,262C 188.66,260.334 189.16,260.167 191,261.5C 191.494,263.134 191.66,264.801 191.5,266.5C 180.025,269.393 168.358,270.726 156.5,270.5C 156.47,269.503 156.97,268.836 158,268.5C 161.455,269.55 164.955,269.717 168.5,269C 166.167,268.667 163.833,268.333 161.5,268C 162.833,267.667 164.167,267.333 165.5,267C 164.167,266 162.833,265 161.5,264C 162.672,263.581 163.672,262.915 164.5,262C 163.333,261.5 162.5,260.667 162,259.5C 159.868,262.355 157.368,262.855 154.5,261C 152.555,256.727 149.222,254.394 144.5,254C 144.833,253.667 145.167,253.333 145.5,253C 143.117,252.935 142.45,252.102 143.5,250.5C 140.914,249.52 138.247,249.187 135.5,249.5C 138.77,248.717 142.103,247.717 145.5,246.5C 147.382,247.093 149.215,247.76 151,248.5C 152.68,247.397 154.18,247.73 155.5,249.5C 157.098,247.027 158.598,247.027 160,249.5C 161.054,247.246 162.554,246.913 164.5,248.5C 165.172,247.051 165.839,245.718 166.5,244.5 Z"/></g>
</svg>