<?xml version="1.0" encoding="UTF-8"?>
<!DOCTYPE svg PUBLIC "-//W3C//DTD SVG 1.1//EN" "http://www.w3.org/Graphics/SVG/1.1/DTD/svg11.dtd">
<svg xmlns="http://www.w3.org/2000/svg" version="1.1" width="349px" height="471px" style="shape-rendering:geometricPrecision; text-rendering:geometricPrecision; image-rendering:optimizeQuality; fill-rule:evenodd; clip-rule:evenodd" xmlns:xlink="http://www.w3.org/1999/xlink">
<g><path style="opacity:0.64" fill="#ccb8a1" d="M 164.5,-0.5 C 170.833,-0.5 177.167,-0.5 183.5,-0.5C 204.264,6.6599 213.764,21.3266 212,43.5C 208.922,58.2414 200.422,68.4081 186.5,74C 168.37,78.9324 153.537,74.0991 142,59.5C 131.717,40.716 133.883,23.5494 148.5,8C 153.483,4.344 158.816,1.51066 164.5,-0.5 Z M 172.5,1.5 C 199.983,4.81258 211.817,20.1459 208,47.5C 200.571,66.3044 186.737,74.4711 166.5,72C 151.103,67.9372 141.936,58.1038 139,42.5C 138.311,19.0316 149.477,5.36497 172.5,1.5 Z M 182.5,15.5 C 190.153,16.9598 191.82,20.7932 187.5,27C 182.096,29.6316 178.763,27.965 177.5,22C 178.269,19.0737 179.935,16.9071 182.5,15.5 Z"/></g>
<g><path style="opacity:0.646" fill="#ccb8a1" d="M 181.5,12.5 C 192.131,13.4304 195.298,18.7637 191,28.5C 189.22,29.5937 187.386,30.5937 185.5,31.5C 187.483,33.9837 189.65,36.3171 192,38.5C 194.99,47.3432 191.824,52.0099 182.5,52.5C 182.5,51.5 182.5,50.5 182.5,49.5C 189.69,48.4541 191.523,44.7874 188,38.5C 185.205,36.7068 182.705,34.5402 180.5,32C 179.056,31.2195 177.723,31.3861 176.5,32.5C 173.959,40.7883 171.625,49.1217 169.5,57.5C 167.876,57.6399 166.71,56.9733 166,55.5C 163.516,47.5621 161.349,39.5621 159.5,31.5C 156.687,31.5481 154.021,32.2147 151.5,33.5C 150.1,31.2183 150.766,29.7183 153.5,29C 156.227,28.1816 158.894,28.3483 161.5,29.5C 163.568,36.2032 165.734,42.8698 168,49.5C 170,42.8333 172,36.1667 174,29.5C 174.925,28.9535 175.758,28.2868 176.5,27.5C 173.586,20.9085 175.253,15.9085 181.5,12.5 Z M 182.5,15.5 C 179.935,16.9071 178.269,19.0737 177.5,22C 178.763,27.965 182.096,29.6316 187.5,27C 191.82,20.7932 190.153,16.9598 182.5,15.5 Z"/></g>
<g><path style="opacity:0.641" fill="#ccb8a1" d="M 55.5,17.5 C 58.6074,17.3512 61.6074,17.8512 64.5,19C 75.2056,25.3685 84.3723,33.5351 92,43.5C 121.92,81.6511 145.42,123.651 162.5,169.5C 166.49,173.659 170.324,177.993 174,182.5C 177.676,177.993 181.51,173.659 185.5,169.5C 202.58,123.651 226.08,81.6511 256,43.5C 263.628,33.5351 272.794,25.3685 283.5,19C 293.228,17.7494 302.061,20.2494 310,26.5C 310.481,34.2518 309.814,41.9184 308,49.5C 304.58,55.0185 302.246,61.0185 301,67.5C 294.601,81.9637 287.935,96.297 281,110.5C 272.581,123.672 263.915,136.672 255,149.5C 251.483,152.717 248.316,156.217 245.5,160C 243.024,162.571 240.024,164.071 236.5,164.5C 257.068,129.352 273.902,92.3523 287,53.5C 287.667,52.1667 287.667,50.8333 287,49.5C 280.36,54.3075 275.86,60.6408 273.5,68.5C 266.457,74.5724 261.957,82.2391 260,91.5C 259,92.1667 258,92.8333 257,93.5C 252.787,100.2 250.12,107.2 249,114.5C 247.903,116.053 246.57,117.386 245,118.5C 243.296,122.741 241.462,126.907 239.5,131C 240.576,132.726 240.743,134.559 240,136.5C 234.201,145.706 230.034,155.706 227.5,166.5C 228.575,169.438 228.741,172.438 228,175.5C 227.097,176.701 225.931,177.535 224.5,178C 225.893,179.171 226.727,180.671 227,182.5C 227.499,186.152 227.665,189.818 227.5,193.5C 232.315,192.84 236.149,190.506 239,186.5C 248.695,169.803 261.528,155.97 277.5,145C 283.433,141.363 289.766,138.863 296.5,137.5C 296.812,148.211 296.312,158.878 295,169.5C 293.562,178.544 289.396,186.044 282.5,192C 272.834,197.164 263.5,202.831 254.5,209C 248.901,213.933 244.901,219.933 242.5,227C 244.343,229.352 245.343,232.019 245.5,235C 243.747,244.687 241.081,254.02 237.5,263C 238.455,266.471 238.622,269.971 238,273.5C 235.839,278.492 233.172,283.159 230,287.5C 225.508,305.135 221.175,322.801 217,340.5C 214.036,344.466 210.703,348.133 207,351.5C 201.91,360.085 197.577,369.085 194,378.5C 180.667,390.5 167.333,390.5 154,378.5C 150.423,369.085 146.09,360.085 141,351.5C 137.297,348.133 133.964,344.466 131,340.5C 126.825,322.801 122.492,305.135 118,287.5C 114.828,283.159 112.161,278.492 110,273.5C 109.378,269.971 109.545,266.471 110.5,263C 106.919,254.02 104.253,244.687 102.5,235C 102.657,232.019 103.657,229.352 105.5,227C 103.099,219.933 99.0993,213.933 93.5,209C 84.4996,202.831 75.1662,197.164 65.5,192C 58.6043,186.044 54.4376,178.544 53,169.5C 51.6884,158.878 51.1884,148.211 51.5,137.5C 62.2328,140.2 71.8995,145.033 80.5,152C 91.5098,162.335 101.01,173.835 109,186.5C 111.851,190.506 115.685,192.84 120.5,193.5C 120.335,189.818 120.501,186.152 121,182.5C 121.273,180.671 122.107,179.171 123.5,178C 122.069,177.535 120.903,176.701 120,175.5C 119.259,172.438 119.425,169.438 120.5,166.5C 117.966,155.706 113.799,145.706 108,136.5C 107.257,134.559 107.424,132.726 108.5,131C 106.538,126.907 104.704,122.741 103,118.5C 98.9397,115.961 97.4397,112.461 98.5,108C 95.8724,103.245 93.3724,98.4118 91,93.5C 87.5377,91.5819 85.8711,88.5819 86,84.5C 83.3675,78.2081 79.5342,72.8747 74.5,68.5C 72.0984,60.6103 67.5984,54.277 61,49.5C 60.3333,50.8333 60.3333,52.1667 61,53.5C 74.0985,92.3523 90.9318,129.352 111.5,164.5C 107.976,164.071 104.976,162.571 102.5,160C 99.6841,156.217 96.5174,152.717 93,149.5C 71.2963,119.431 54.2963,86.764 42,51.5C 41.3333,50.8333 40.6667,50.1667 40,49.5C 38.1856,41.9184 37.5189,34.2518 38,26.5C 43.5658,22.8015 49.3991,19.8015 55.5,17.5 Z M 101.5,153.5 C 90.5011,140.695 80.8344,126.861 72.5,112C 75.5246,111.846 77.1913,110.346 77.5,107.5C 75.0628,107.756 72.7294,108.423 70.5,109.5C 69.5709,106.475 68.2376,103.642 66.5,101C 68.8474,100.288 70.8474,99.1214 72.5,97.5C 72.1667,96.5 71.5,95.8333 70.5,95.5C 68.5878,97.1561 66.5878,97.4895 64.5,96.5C 60.2036,88.0063 56.2036,79.3396 52.5,70.5C 55.6694,70.0172 58.336,68.6839 60.5,66.5C 57.2133,65.0584 54.3799,65.7251 52,68.5C 51.1667,67.6667 50.3333,66.8333 49.5,66C 51.579,64.3602 53.9124,63.1936 56.5,62.5C 57.3857,61.675 57.719,60.675 57.5,59.5C 54.5,60.1667 51.5,60.8333 48.5,61.5C 47.6621,58.3136 46.6621,55.1469 45.5,52C 47.8319,50.0427 50.4986,48.5427 53.5,47.5C 54.3857,46.675 54.719,45.675 54.5,44.5C 50.5628,45.0351 46.8961,46.3685 43.5,48.5C 42.577,43.4119 41.577,38.0786 40.5,32.5C 40.3262,30.3066 40.9929,28.4733 42.5,27C 48.202,23.8006 54.202,21.8006 60.5,21C 69.9154,25.4011 77.9154,31.7344 84.5,40C 77.6755,42.7092 71.0088,45.3759 64.5,48C 64.1667,47.6667 63.8333,47.3333 63.5,47C 67.6087,43.6123 72.2754,41.279 77.5,40C 78.3366,38.9887 78.67,37.8221 78.5,36.5C 72.786,37.6068 67.6193,39.9401 63,43.5C 60.1471,40.9482 57.6471,38.1149 55.5,35C 54.062,34.7811 52.7287,34.2811 51.5,33.5C 54.2718,31.6096 57.2718,29.943 60.5,28.5C 61.7112,27.7261 61.7112,26.8928 60.5,26C 56.7327,26.5338 53.0661,27.7005 49.5,29.5C 47.2178,28.7766 44.8845,28.4433 42.5,28.5C 42.3946,32.5483 42.7279,36.5483 43.5,40.5C 44.5,40.5 45.5,40.5 46.5,40.5C 46.1231,37.4752 45.9565,34.4752 46,31.5C 48.4129,35.2464 51.4129,38.2464 55,40.5C 62.0992,68.9632 72.2659,96.2965 85.5,122.5C 84.2634,123.281 83.2634,124.281 82.5,125.5C 84.3413,126.23 86.1746,126.897 88,127.5C 92.7596,136.076 97.2596,144.743 101.5,153.5 Z M 246.5,153.5 C 251.477,144.325 256.31,134.991 261,125.5C 266.11,126.7 266.61,125.7 262.5,122.5C 272.167,102.139 280.834,81.4727 288.5,60.5C 290.334,53.1622 292.168,45.8289 294,38.5C 297.582,37.2536 300.249,34.9203 302,31.5C 302.224,34.1105 301.724,36.6105 300.5,39C 301.275,40.2295 302.275,40.5628 303.5,40C 305.183,36.3797 305.85,32.5463 305.5,28.5C 303.116,28.4433 300.782,28.7766 298.5,29.5C 294.826,27.9961 291.16,26.8294 287.5,26C 286.289,26.8928 286.289,27.7261 287.5,28.5C 290.728,29.943 293.728,31.6096 296.5,33.5C 295.271,34.2811 293.938,34.7811 292.5,35C 290.353,38.1149 287.853,40.9482 285,43.5C 280.138,39.5491 274.638,37.3825 268.5,37C 267.167,37.6667 267.167,38.3333 268.5,39C 274.254,40.9123 279.588,43.579 284.5,47C 283.975,47.6924 283.308,48.1924 282.5,48.5C 276.434,45.1347 270.1,42.3014 263.5,40C 268.532,34.6335 273.865,29.6335 279.5,25C 282.452,22.6913 285.786,21.1913 289.5,20.5C 294.942,22.3871 300.275,24.5538 305.5,27C 307.007,28.4733 307.674,30.3066 307.5,32.5C 306.423,38.0786 305.423,43.4119 304.5,48.5C 301.618,46.8921 298.618,45.5587 295.5,44.5C 294.5,44.8333 293.833,45.5 293.5,46.5C 296.617,48.2481 299.617,50.0815 302.5,52C 300.451,57.151 298.617,62.3177 297,67.5C 294.684,66.5042 292.35,65.5042 290,64.5C 288.941,64.6301 288.108,65.1301 287.5,66C 290.014,67.7573 292.681,69.2573 295.5,70.5C 289.793,83.584 283.793,96.584 277.5,109.5C 275.271,108.423 272.937,107.756 270.5,107.5C 270.809,110.346 272.475,111.846 275.5,112C 267.166,126.861 257.499,140.695 246.5,153.5 Z M 84.5,43.5 C 86.9032,43.393 88.7365,44.393 90,46.5C 98.5531,57.3861 106.72,68.5528 114.5,80C 111.883,80.8215 109.216,81.3215 106.5,81.5C 106.5,82.5 106.5,83.5 106.5,84.5C 109.841,83.9947 113.174,83.8281 116.5,84C 133.537,110.575 147.537,138.741 158.5,168.5C 158.291,169.086 157.957,169.586 157.5,170C 147.508,171.456 137.674,173.623 128,176.5C 123.59,175.592 121.757,172.925 122.5,168.5C 131.742,166.023 141.076,163.856 150.5,162C 150.957,161.586 151.291,161.086 151.5,160.5C 142.064,160.286 132.897,161.953 124,165.5C 123.5,165 123,164.5 122.5,164C 126.199,163.092 129.532,161.592 132.5,159.5C 129.103,158.506 125.77,158.839 122.5,160.5C 120.041,154.624 117.874,148.624 116,142.5C 114.269,139.732 112.436,137.065 110.5,134.5C 115.656,131.335 121.322,129.335 127.5,128.5C 127.5,127.5 127.5,126.5 127.5,125.5C 122.166,126.125 116.999,127.459 112,129.5C 109.169,125.171 106.835,120.504 105,115.5C 102.453,114.527 100.953,112.693 100.5,110C 107.81,106.342 115.476,103.842 123.5,102.5C 123.5,101.5 123.5,100.5 123.5,99.5C 115.528,100.324 108.028,102.657 101,106.5C 98.0122,99.3356 94.1788,92.8356 89.5,87C 94.5132,83.4918 99.8465,80.4918 105.5,78C 104.892,77.1301 104.059,76.6301 103,76.5C 98.3232,78.0881 93.8232,80.0881 89.5,82.5C 86.5136,77.8698 83.5136,73.2031 80.5,68.5C 78.0425,67.8757 76.3758,66.3757 75.5,64C 81.2523,60.4572 87.2523,57.4572 93.5,55C 92.8921,54.1301 92.0588,53.6301 91,53.5C 85.648,55.0065 80.4814,57.0065 75.5,59.5C 73.0077,56.8369 70.6744,54.0036 68.5,51C 73.6146,47.8068 78.9479,45.3068 84.5,43.5 Z M 260.5,43.5 C 267.335,44.7229 273.668,47.2229 279.5,51C 277.326,54.0036 274.992,56.8369 272.5,59.5C 267.519,57.0065 262.352,55.0065 257,53.5C 255.941,53.6301 255.108,54.1301 254.5,55C 260.748,57.4572 266.748,60.4572 272.5,64C 271.624,66.3757 269.958,67.8757 267.5,68.5C 264.486,73.2031 261.486,77.8698 258.5,82.5C 254.177,80.0881 249.677,78.0881 245,76.5C 243.941,76.6301 243.108,77.1301 242.5,78C 248.153,80.4918 253.487,83.4918 258.5,87C 253.821,92.8356 249.988,99.3356 247,106.5C 239.972,102.657 232.472,100.324 224.5,99.5C 224.5,100.5 224.5,101.5 224.5,102.5C 232.524,103.842 240.19,106.342 247.5,110C 247.047,112.693 245.547,114.527 243,115.5C 241.165,120.504 238.831,125.171 236,129.5C 231.001,127.459 225.834,126.125 220.5,125.5C 220.5,126.5 220.5,127.5 220.5,128.5C 226.678,129.335 232.344,131.335 237.5,134.5C 235.564,137.065 233.731,139.732 232,142.5C 230.126,148.624 227.959,154.624 225.5,160.5C 222.23,158.839 218.897,158.506 215.5,159.5C 217.697,161.518 220.364,162.685 223.5,163C 224.451,163.718 224.617,164.551 224,165.5C 215.103,161.953 205.936,160.286 196.5,160.5C 196.709,161.086 197.043,161.586 197.5,162C 206.924,163.856 216.258,166.023 225.5,168.5C 225.66,170.199 225.494,171.866 225,173.5C 223.253,174.33 221.587,175.33 220,176.5C 210.326,173.623 200.492,171.456 190.5,170C 190.043,169.586 189.709,169.086 189.5,168.5C 200.463,138.741 214.463,110.575 231.5,84C 234.826,83.8281 238.159,83.9947 241.5,84.5C 241.5,83.5 241.5,82.5 241.5,81.5C 238.784,81.3215 236.117,80.8215 233.5,80C 242.332,67.6741 251.332,55.5075 260.5,43.5 Z M 165.5,108.5 C 171.167,108.5 176.833,108.5 182.5,108.5C 180.17,116.654 177.337,124.654 174,132.5C 170.663,124.654 167.83,116.654 165.5,108.5 Z M 104.5,216.5 C 101.405,211.57 97.4051,207.403 92.5,204C 84.5,199.333 76.5,194.667 68.5,190C 59.8012,182.608 55.3012,173.108 55,161.5C 54.1694,155.141 54.3361,148.807 55.5,142.5C 82.2371,160.244 98.5704,184.911 104.5,216.5 Z M 243.5,216.5 C 249.43,184.911 265.763,160.244 292.5,142.5C 294.727,156.412 292.893,169.745 287,182.5C 284.833,185.333 282.333,187.833 279.5,190C 271.5,194.667 263.5,199.333 255.5,204C 250.595,207.403 246.595,211.57 243.5,216.5 Z M 71.5,150.5 C 79.0602,155.553 85.8935,161.553 92,168.5C 98.0452,176.756 104.212,184.923 110.5,193C 121.96,200.144 126.46,196.977 124,183.5C 124.374,182.584 124.874,181.75 125.5,181C 136.737,177.149 148.237,174.316 160,172.5C 164.132,176.303 167.966,180.469 171.5,185C 173.167,185.667 174.833,185.667 176.5,185C 179.361,182.106 181.861,178.939 184,175.5C 185.117,173.876 186.617,172.876 188.5,172.5C 200.42,174.048 211.92,177.048 223,181.5C 224.215,186.051 224.881,190.718 225,195.5C 230.985,197.061 235.985,195.394 240,190.5C 246.927,180.404 254.427,170.738 262.5,161.5C 266.631,157.023 271.297,153.356 276.5,150.5C 255.611,169.605 243.111,193.272 239,221.5C 235.639,216.112 232.806,210.446 230.5,204.5C 229.675,203.614 228.675,203.281 227.5,203.5C 228.421,208.014 229.921,212.347 232,216.5C 235.906,222.484 239.406,228.651 242.5,235C 242.327,237.021 241.66,238.854 240.5,240.5C 236.8,237.16 232.467,235.826 227.5,236.5C 228.15,228.921 226.817,221.755 223.5,215C 221.5,213 219.5,213 217.5,215C 215.288,217.043 213.288,219.209 211.5,221.5C 210.151,213.971 205.818,211.138 198.5,213C 196.714,213.785 195.214,214.951 194,216.5C 189.333,223.833 184.667,231.167 180,238.5C 176,242.5 172,242.5 168,238.5C 162.624,230.247 157.124,222.08 151.5,214C 143.32,210.147 138.32,212.647 136.5,221.5C 134.146,218.149 131.146,215.482 127.5,213.5C 124.245,214.66 122.412,216.993 122,220.5C 120.809,225.767 120.309,231.101 120.5,236.5C 115.533,235.826 111.2,237.16 107.5,240.5C 106.34,238.854 105.673,237.021 105.5,235C 108.594,228.651 112.094,222.484 116,216.5C 118.079,212.347 119.579,208.014 120.5,203.5C 119.325,203.281 118.325,203.614 117.5,204.5C 115.194,210.446 112.361,216.112 109,221.5C 104.889,193.272 92.3888,169.605 71.5,150.5 Z M 143.5,215.5 C 145.199,215.34 146.866,215.506 148.5,216C 154.2,222.562 159.033,229.729 163,237.5C 170.333,246.833 177.667,246.833 185,237.5C 188.967,229.729 193.8,222.562 199.5,216C 205.527,215.018 208.527,217.685 208.5,224C 205.639,237.723 203.472,251.556 202,265.5C 194.751,277.484 190.417,290.484 189,304.5C 187.535,295.371 185.535,286.371 183,277.5C 180.997,270.249 176.497,267.915 169.5,270.5C 167.501,272.493 166.001,274.827 165,277.5C 162.465,286.371 160.465,295.371 159,304.5C 157.583,290.484 153.249,277.484 146,265.5C 144.528,251.556 142.361,237.723 139.5,224C 139.798,220.571 141.131,217.737 143.5,215.5 Z M 126.5,217.5 C 127.675,217.281 128.675,217.614 129.5,218.5C 131.544,221.949 134.044,224.949 137,227.5C 139.572,240.41 141.572,253.41 143,266.5C 145.139,272.112 147.806,277.446 151,282.5C 153.409,290.382 155.243,298.382 156.5,306.5C 155.831,311.664 153.331,315.664 149,318.5C 147.723,301.729 144.39,285.396 139,269.5C 134.277,263.888 130.444,257.721 127.5,251C 121.652,246.76 115.818,246.594 110,250.5C 108.166,243.956 110.832,240.289 118,239.5C 120.187,239.788 122.354,240.122 124.5,240.5C 122.823,232.6 123.49,224.933 126.5,217.5 Z M 218.5,217.5 C 221.388,217.22 222.888,218.553 223,221.5C 224.83,227.795 224.996,234.128 223.5,240.5C 230.163,237.936 235.329,239.602 239,245.5C 239.774,247.403 239.44,249.07 238,250.5C 231.888,246.507 225.888,246.84 220,251.5C 215.92,259.329 211.587,266.996 207,274.5C 202.789,288.889 200.122,303.555 199,318.5C 196.333,317.167 194.333,315.167 193,312.5C 191.992,302.203 193.325,292.203 197,282.5C 200.194,277.446 202.861,272.112 205,266.5C 206.428,253.41 208.428,240.41 211,227.5C 214.225,224.721 216.725,221.387 218.5,217.5 Z M 116.5,250.5 C 119.311,250.826 121.978,251.659 124.5,253C 126.486,256.635 128.486,260.302 130.5,264C 125.713,264.879 121.047,264.545 116.5,263C 112.788,260.398 111.622,256.898 113,252.5C 112.884,257.982 115.384,261.315 120.5,262.5C 120.431,259.916 119.265,257.916 117,256.5C 116.505,254.527 116.338,252.527 116.5,250.5 Z M 228.5,250.5 C 229.5,250.5 230.5,250.5 231.5,250.5C 232.211,254.281 231.045,257.281 228,259.5C 227.517,260.448 227.351,261.448 227.5,262.5C 232.616,261.315 235.116,257.982 235,252.5C 236.378,256.898 235.212,260.398 231.5,263C 226.953,264.545 222.287,264.879 217.5,264C 218.38,261.432 219.88,260.932 222,262.5C 223.059,262.37 223.892,261.87 224.5,261C 219.921,259.12 219.588,256.454 223.5,253C 225.315,252.243 226.981,251.41 228.5,250.5 Z M 113.5,265.5 C 114.473,265.987 115.473,266.487 116.5,267C 122.167,267.333 127.833,267.667 133.5,268C 134.787,269.41 135.954,270.91 137,272.5C 140.144,284.74 142.81,297.074 145,309.5C 145.667,314.833 145.667,320.167 145,325.5C 143.74,333.133 142.74,340.799 142,348.5C 139.333,345.167 136.667,341.833 134,338.5C 130.246,323.317 126.413,308.15 122.5,293C 122.833,292.5 123.167,292 123.5,291.5C 127.315,294.29 131.315,294.79 135.5,293C 138.274,291.395 138.94,289.228 137.5,286.5C 134.21,290.66 130.21,291.493 125.5,289C 119.797,284.635 115.63,279.135 113,272.5C 112.297,270.071 112.463,267.738 113.5,265.5 Z M 233.5,265.5 C 234.117,265.611 234.617,265.944 235,266.5C 235.282,272.617 233.282,277.951 229,282.5C 226.833,284.667 224.667,286.833 222.5,289C 217.79,291.493 213.79,290.66 210.5,286.5C 209.06,289.228 209.726,291.395 212.5,293C 216.685,294.79 220.685,294.29 224.5,291.5C 224.833,292 225.167,292.5 225.5,293C 221.587,308.15 217.754,323.317 214,338.5C 211.333,341.833 208.667,345.167 206,348.5C 204.423,338.216 203.256,327.883 202.5,317.5C 203.425,303.224 205.925,289.224 210,275.5C 211.07,272.758 212.57,270.258 214.5,268C 220.167,267.667 225.833,267.333 231.5,267C 232.416,266.722 233.082,266.222 233.5,265.5 Z M 171.5,272.5 C 174.044,272.104 176.211,272.771 178,274.5C 179.725,277.674 181.058,281.007 182,284.5C 183.153,294.941 185.819,304.941 190,314.5C 192.397,317.4 195.23,319.733 198.5,321.5C 201.56,332.298 202.726,343.298 202,354.5C 196.806,359.694 191.64,364.86 186.5,370C 175.588,372.08 172.588,368.08 177.5,358C 188.175,354.166 194.175,346.666 195.5,335.5C 195.658,333.681 194.991,332.348 193.5,331.5C 180.5,340.833 167.5,340.833 154.5,331.5C 151.819,339.968 154.152,347.134 161.5,353C 164.585,354.96 167.752,356.793 171,358.5C 174.622,369.874 170.789,373.374 159.5,369C 155.339,363.839 150.839,359.006 146,354.5C 145.274,343.298 146.44,332.298 149.5,321.5C 154.919,318.58 158.753,314.247 161,308.5C 163.05,300.585 164.716,292.585 166,284.5C 167.043,280.085 168.876,276.085 171.5,272.5 Z M 155.5,336.5 C 167.667,343.136 179.834,343.136 192,336.5C 192.492,337.549 192.326,338.549 191.5,339.5C 182.64,341.527 176.807,346.86 174,355.5C 171.193,346.86 165.36,341.527 156.5,339.5C 155.873,338.583 155.539,337.583 155.5,336.5 Z M 158.5,343.5 C 163.542,344.85 167.208,347.85 169.5,352.5C 169.167,352.833 168.833,353.167 168.5,353.5C 164.124,351.124 160.79,347.79 158.5,343.5 Z M 188.5,343.5 C 189.525,343.897 189.692,344.563 189,345.5C 186.273,348.731 183.106,351.397 179.5,353.5C 179.167,353.167 178.833,352.833 178.5,352.5C 180.652,348.106 183.986,345.106 188.5,343.5 Z M 152.5,366.5 C 154.5,367.976 156.167,369.809 157.5,372C 163.132,374.155 168.632,373.989 174,371.5C 179.368,373.989 184.868,374.155 190.5,372C 191.88,370.075 193.38,368.241 195,366.5C 192.757,377.726 185.757,383.726 174,384.5C 162.383,383.71 155.216,377.71 152.5,366.5 Z"/></g>
<g><path style="opacity:0.659" fill="#ccb8a1" d="M 110.5,27.5 C 111.5,27.5 112.5,27.5 113.5,27.5C 113.5,28.8333 113.5,30.1667 113.5,31.5C 114.5,31.5 115.5,31.5 116.5,31.5C 116.5,32.5 116.5,33.5 116.5,34.5C 115.5,34.5 114.5,34.5 113.5,34.5C 113.5,36.1667 113.5,37.8333 113.5,39.5C 112.5,39.5 111.5,39.5 110.5,39.5C 111.157,36.1592 109.824,34.1592 106.5,33.5C 107.32,31.8888 108.654,31.2222 110.5,31.5C 110.5,30.1667 110.5,28.8333 110.5,27.5 Z"/></g>
<g><path style="opacity:0.659" fill="#ccb8a1" d="M 234.5,27.5 C 235.5,27.5 236.5,27.5 237.5,27.5C 237.5,28.8333 237.5,30.1667 237.5,31.5C 242.422,32.3344 242.589,33.6677 238,35.5C 237.51,36.7932 237.343,38.1266 237.5,39.5C 236.5,39.5 235.5,39.5 234.5,39.5C 234.5,37.8333 234.5,36.1667 234.5,34.5C 233.5,34.5 232.5,34.5 231.5,34.5C 231.5,33.5 231.5,32.5 231.5,31.5C 232.5,31.5 233.5,31.5 234.5,31.5C 234.5,30.1667 234.5,28.8333 234.5,27.5 Z"/></g>
<g><path style="opacity:0.636" fill="#ccb8a1" d="M 130.5,58.5 C 134.274,59.3057 136.774,61.6391 138,65.5C 155.633,84.2686 175.799,87.7686 198.5,76C 205.067,70.7667 210.9,64.9334 216,58.5C 216.5,58.8333 217,59.1667 217.5,59.5C 208.59,76.2927 194.59,84.9593 175.5,85.5C 175.5,92.1667 175.5,98.8333 175.5,105.5C 179.167,105.5 182.833,105.5 186.5,105.5C 183.715,116.021 180.215,126.355 176,136.5C 175.5,146.828 175.334,157.161 175.5,167.5C 174.5,167.5 173.5,167.5 172.5,167.5C 172.666,157.161 172.5,146.828 172,136.5C 167.785,126.355 164.285,116.021 161.5,105.5C 165.167,105.5 168.833,105.5 172.5,105.5C 172.5,98.8333 172.5,92.1667 172.5,85.5C 152.866,85.0294 138.866,76.0294 130.5,58.5 Z M 165.5,108.5 C 167.83,116.654 170.663,124.654 174,132.5C 177.337,124.654 180.17,116.654 182.5,108.5C 176.833,108.5 171.167,108.5 165.5,108.5 Z"/></g>
<g><path style="opacity:0.498" fill="#ccb8a1" d="M 288.5,60.5 C 290.958,59.3799 292.958,60.0465 294.5,62.5C 291.707,63.9725 289.707,63.3058 288.5,60.5 Z"/></g>
<g><path style="opacity:0.552" fill="#ccb8a1" d="M 91.5,61.5 C 92.5,61.5 93.5,61.5 94.5,61.5C 94.719,62.675 94.3857,63.675 93.5,64.5C 91.8333,65.1667 90.1667,65.8333 88.5,66.5C 87.4173,65.635 87.2506,64.635 88,63.5C 89.3024,62.9152 90.469,62.2485 91.5,61.5 Z"/></g>
<g><path style="opacity:0.567" fill="#ccb8a1" d="M 253.5,61.5 C 255.806,61.9926 258.139,62.3259 260.5,62.5C 260.5,63.5 260.5,64.5 260.5,65.5C 258.409,65.6816 256.409,65.3482 254.5,64.5C 253.614,63.675 253.281,62.675 253.5,61.5 Z"/></g>
<g><path style="opacity:0.593" fill="#ccb8a1" d="M 22.5,79.5 C 23.5,79.5 24.5,79.5 25.5,79.5C 25.9155,83.3751 25.4155,87.0418 24,90.5C 22.5845,87.0418 22.0845,83.3751 22.5,79.5 Z"/></g>
<g><path style="opacity:0.593" fill="#ccb8a1" d="M 322.5,79.5 C 323.5,79.5 324.5,79.5 325.5,79.5C 325.915,83.3751 325.415,87.0418 324,90.5C 322.585,87.0418 322.085,83.3751 322.5,79.5 Z"/></g>
<g><path style="opacity:0.646" fill="#ccb8a1" d="M 22.5,93.5 C 23.5,93.5 24.5,93.5 25.5,93.5C 25.5297,102.245 29.5297,108.245 37.5,111.5C 29.9948,115.031 25.9948,121.031 25.5,129.5C 24.5,129.5 23.5,129.5 22.5,129.5C 22.475,123.284 20.1416,118.117 15.5,114C 14.2068,113.51 12.8734,113.343 11.5,113.5C 11.3505,112.448 11.5172,111.448 12,110.5C 19.0374,107.104 22.5374,101.438 22.5,93.5 Z M 23.5,103.5 C 25.4793,106.099 27.4793,108.765 29.5,111.5C 27.4197,113.993 25.5864,116.659 24,119.5C 22.7523,116.421 20.9189,113.754 18.5,111.5C 21.0119,109.33 22.6785,106.663 23.5,103.5 Z"/></g>
<g><path style="opacity:0.646" fill="#ccb8a1" d="M 322.5,93.5 C 323.5,93.5 324.5,93.5 325.5,93.5C 325.463,101.438 328.963,107.104 336,110.5C 336.483,111.448 336.649,112.448 336.5,113.5C 333.215,113.269 330.715,114.603 329,117.5C 326.715,121.187 325.548,125.187 325.5,129.5C 324.5,129.5 323.5,129.5 322.5,129.5C 322.005,121.031 318.005,115.031 310.5,111.5C 318.47,108.245 322.47,102.245 322.5,93.5 Z M 323.5,103.5 C 325.059,106.407 327.059,109.074 329.5,111.5C 327.081,113.754 325.248,116.421 324,119.5C 322.414,116.659 320.58,113.993 318.5,111.5C 320.678,109.142 322.345,106.475 323.5,103.5 Z"/></g>
<g><path style="opacity:0.503" fill="#ccb8a1" d="M 275.5,95.5 C 277.696,95.5652 279.696,96.2319 281.5,97.5C 280.252,99.69 278.586,100.023 276.5,98.5C 275.614,97.675 275.281,96.675 275.5,95.5 Z"/></g>
<g><path style="opacity:0.63" fill="#ccb8a1" d="M -0.5,110.5 C 2.16667,110.5 4.83333,110.5 7.5,110.5C 7.5,111.5 7.5,112.5 7.5,113.5C 4.72116,113.721 2.05449,113.388 -0.5,112.5C -0.5,111.833 -0.5,111.167 -0.5,110.5 Z"/></g>
<g><path style="opacity:0.63" fill="#ccb8a1" d="M 40.5,110.5 C 43.1667,110.5 45.8333,110.5 48.5,110.5C 48.5,111.5 48.5,112.5 48.5,113.5C 46.1432,113.663 43.8098,113.497 41.5,113C 40.7476,112.329 40.4142,111.496 40.5,110.5 Z"/></g>
<g><path style="opacity:0.63" fill="#ccb8a1" d="M 299.5,110.5 C 302.247,110.187 304.914,110.52 307.5,111.5C 307.291,112.086 306.957,112.586 306.5,113C 304.19,113.497 301.857,113.663 299.5,113.5C 299.5,112.5 299.5,111.5 299.5,110.5 Z"/></g>
<g><path style="opacity:0.63" fill="#ccb8a1" d="M 348.5,110.5 C 348.5,111.167 348.5,111.833 348.5,112.5C 345.946,113.388 343.279,113.721 340.5,113.5C 340.5,112.5 340.5,111.5 340.5,110.5C 343.167,110.5 345.833,110.5 348.5,110.5 Z"/></g>
<g><path style="opacity:0.613" fill="#ccb8a1" d="M 129.5,111.5 C 131.466,112.255 131.8,113.421 130.5,115C 126.506,115.945 122.506,116.778 118.5,117.5C 118.5,116.5 118.5,115.5 118.5,114.5C 122.323,113.664 125.989,112.664 129.5,111.5 Z"/></g>
<g><path style="opacity:0.606" fill="#ccb8a1" d="M 216.5,111.5 C 220.874,112.344 225.207,113.344 229.5,114.5C 229.5,115.5 229.5,116.5 229.5,117.5C 225.778,116.983 222.112,116.15 218.5,115C 217.027,114.29 216.36,113.124 216.5,111.5 Z"/></g>
<g><path style="opacity:0.617" fill="#ccb8a1" d="M 135.5,132.5 C 137.5,132.5 139.5,132.5 141.5,132.5C 141.5,133.5 141.5,134.5 141.5,135.5C 134.64,136.341 127.974,138.008 121.5,140.5C 118.972,139.483 118.972,138.316 121.5,137C 126.373,135.763 131.04,134.263 135.5,132.5 Z"/></g>
<g><path style="opacity:0.617" fill="#ccb8a1" d="M 206.5,132.5 C 212.317,132.87 217.984,134.037 223.5,136C 225.618,136.26 227.284,137.26 228.5,139C 227.975,139.692 227.308,140.192 226.5,140.5C 220.026,138.008 213.36,136.341 206.5,135.5C 206.5,134.5 206.5,133.5 206.5,132.5 Z"/></g>
<g><path style="opacity:0.613" fill="#ccb8a1" d="M 22.5,133.5 C 23.5,133.5 24.5,133.5 25.5,133.5C 25.5,136.833 25.5,140.167 25.5,143.5C 24.5,143.5 23.5,143.5 22.5,143.5C 22.5,140.167 22.5,136.833 22.5,133.5 Z"/></g>
<g><path style="opacity:0.613" fill="#ccb8a1" d="M 322.5,133.5 C 323.5,133.5 324.5,133.5 325.5,133.5C 325.5,136.833 325.5,140.167 325.5,143.5C 324.5,143.5 323.5,143.5 322.5,143.5C 322.5,140.167 322.5,136.833 322.5,133.5 Z"/></g>
<g><path style="opacity:0.576" fill="#ccb8a1" d="M 128.5,144.5 C 130.604,144.201 132.604,144.534 134.5,145.5C 130.931,147.801 126.931,149.134 122.5,149.5C 122.5,148.5 122.5,147.5 122.5,146.5C 124.786,146.405 126.786,145.738 128.5,144.5 Z"/></g>
<g><path style="opacity:0.577" fill="#ccb8a1" d="M 213.5,144.5 C 217.616,144.541 221.616,145.207 225.5,146.5C 225.5,147.5 225.5,148.5 225.5,149.5C 221.778,148.983 218.112,148.15 214.5,147C 213.748,146.329 213.414,145.496 213.5,144.5 Z"/></g>
<g><path style="opacity:0.616" fill="#ccb8a1" d="M 145.5,182.5 C 147.857,182.337 150.19,182.503 152.5,183C 154.286,183.196 155.619,184.029 156.5,185.5C 152.368,185.523 148.201,185.857 144,186.5C 143.167,186.167 142.333,185.833 141.5,185.5C 142.624,184.141 143.958,183.141 145.5,182.5 Z"/></g>
<g><path style="opacity:0.616" fill="#ccb8a1" d="M 195.5,182.5 C 197.857,182.337 200.19,182.503 202.5,183C 204.286,183.196 205.619,184.029 206.5,185.5C 202.368,185.523 198.201,185.857 194,186.5C 193.167,186.167 192.333,185.833 191.5,185.5C 192.624,184.141 193.958,183.141 195.5,182.5 Z"/></g>
<g><path style="opacity:0.555" fill="#ccb8a1" d="M 162.5,189.5 C 167.947,189.621 171.281,192.288 172.5,197.5C 171.448,197.649 170.448,197.483 169.5,197C 166.883,194.558 164.55,192.058 162.5,189.5 Z"/></g>
<g><path style="opacity:0.555" fill="#ccb8a1" d="M 181.5,189.5 C 182.978,189.238 184.311,189.571 185.5,190.5C 183.042,192.455 180.709,194.622 178.5,197C 177.552,197.483 176.552,197.649 175.5,197.5C 176.345,193.985 178.345,191.319 181.5,189.5 Z"/></g>
<g><path style="opacity:0.556" fill="#ccb8a1" d="M 132.5,192.5 C 134.167,192.5 135.833,192.5 137.5,192.5C 137.5,193.5 137.5,194.5 137.5,195.5C 134.318,196.03 131.318,197.03 128.5,198.5C 128.657,195.682 129.991,193.682 132.5,192.5 Z"/></g>
<g><path style="opacity:0.557" fill="#ccb8a1" d="M 210.5,192.5 C 215.494,191.813 218.494,193.813 219.5,198.5C 216.682,197.03 213.682,196.03 210.5,195.5C 210.5,194.5 210.5,193.5 210.5,192.5 Z"/></g>
<g><path style="opacity:0.768" fill="#ccb8a1" d="M 37.5,194.5 C 39.2501,197.355 40.0835,200.689 40,204.5C 42.3806,205.435 44.8806,205.768 47.5,205.5C 47.5,206.5 47.5,207.5 47.5,208.5C 44.8333,208.5 42.1667,208.5 39.5,208.5C 38.8333,221.833 38.1667,221.833 37.5,208.5C 34.8333,208.5 32.1667,208.5 29.5,208.5C 29.5,207.5 29.5,206.5 29.5,205.5C 32.1194,205.768 34.6194,205.435 37,204.5C 37.4983,201.183 37.665,197.85 37.5,194.5 Z"/></g>
<g><path style="opacity:0.561" fill="#ccb8a1" d="M 150.5,194.5 C 155.459,193.983 159.459,195.649 162.5,199.5C 161.032,201.532 159.365,201.365 157.5,199C 155.26,198.023 152.927,197.523 150.5,197.5C 150.5,196.5 150.5,195.5 150.5,194.5 Z"/></g>
<g><path style="opacity:0.562" fill="#ccb8a1" d="M 191.5,194.5 C 193.5,194.5 195.5,194.5 197.5,194.5C 197.5,195.5 197.5,196.5 197.5,197.5C 193.495,197.557 189.995,198.89 187,201.5C 185.77,200.725 185.437,199.725 186,198.5C 187.812,197.023 189.645,195.69 191.5,194.5 Z"/></g>
<g><path style="opacity:0.768" fill="#ccb8a1" d="M 308.5,194.5 C 310.25,197.355 311.083,200.689 311,204.5C 313.381,205.435 315.881,205.768 318.5,205.5C 318.5,206.5 318.5,207.5 318.5,208.5C 315.833,208.5 313.167,208.5 310.5,208.5C 309.833,221.833 309.167,221.833 308.5,208.5C 305.833,208.5 303.167,208.5 300.5,208.5C 300.5,207.5 300.5,206.5 300.5,205.5C 303.119,205.768 305.619,205.435 308,204.5C 308.498,201.183 308.665,197.85 308.5,194.5 Z"/></g>
<g><path style="opacity:0.525" fill="#ccb8a1" d="M 142.5,199.5 C 145.157,199.162 147.49,199.829 149.5,201.5C 148.597,203.62 147.263,203.954 145.5,202.5C 143.833,203.167 142.167,203.833 140.5,204.5C 139.5,204.167 138.833,203.5 138.5,202.5C 139.624,201.141 140.958,200.141 142.5,199.5 Z"/></g>
<g><path style="opacity:0.537" fill="#ccb8a1" d="M 200.5,199.5 C 204.05,199.133 207.05,200.133 209.5,202.5C 209.167,203.5 208.5,204.167 207.5,204.5C 205.309,202.647 202.975,202.313 200.5,203.5C 197.875,202.135 197.875,200.802 200.5,199.5 Z"/></g>
<g><path style="opacity:0.559" fill="#ccb8a1" d="M 155.5,206.5 C 160.133,206.961 163.133,209.461 164.5,214C 163.725,215.23 162.725,215.563 161.5,215C 159.204,212.232 157.204,209.399 155.5,206.5 Z"/></g>
<g><path style="opacity:0.594" fill="#ccb8a1" d="M 167.5,206.5 C 170.642,206.799 172.809,208.466 174,211.5C 175.191,208.466 177.358,206.799 180.5,206.5C 180.649,207.552 180.483,208.552 180,209.5C 178.229,212.052 176.229,214.385 174,216.5C 171.771,214.385 169.771,212.052 168,209.5C 167.517,208.552 167.351,207.552 167.5,206.5 Z"/></g>
<g><path style="opacity:0.559" fill="#ccb8a1" d="M 189.5,206.5 C 190.5,206.5 191.5,206.5 192.5,206.5C 190.615,209.734 188.281,212.734 185.5,215.5C 184.692,215.192 184.025,214.692 183.5,214C 184.69,210.75 186.69,208.25 189.5,206.5 Z"/></g>
<g><path style="opacity:0.591" fill="#ccb8a1" d="M 167.5,223.5 C 170.044,224.468 172.211,226.135 174,228.5C 175.789,226.135 177.956,224.468 180.5,223.5C 179.04,231.153 175.207,232.82 169,228.5C 167.991,226.975 167.491,225.308 167.5,223.5 Z"/></g>
<g><path style="opacity:0.599" fill="#ccb8a1" d="M 63.5,235.5 C 71.4731,238.817 78.8064,243.151 85.5,248.5C 84.277,249.614 82.9437,249.781 81.5,249C 74.9979,245.25 68.6645,241.25 62.5,237C 63.056,236.617 63.3893,236.117 63.5,235.5 Z"/></g>
<g><path style="opacity:0.603" fill="#ccb8a1" d="M 282.5,235.5 C 283.756,235.461 284.756,235.961 285.5,237C 278.668,241.584 271.668,245.917 264.5,250C 263.056,250.781 261.723,250.614 260.5,249.5C 267.523,244.323 274.856,239.657 282.5,235.5 Z"/></g>
<g><path style="opacity:0.549" fill="#ccb8a1" d="M 35.5,248.5 C 39.1808,248.573 41.5142,250.24 42.5,253.5C 40.4357,253.313 38.4357,252.813 36.5,252C 35.6634,250.989 35.33,249.822 35.5,248.5 Z"/></g>
<g><path style="opacity:0.541" fill="#ccb8a1" d="M 310.5,248.5 C 312.225,248.843 312.725,249.843 312,251.5C 310.559,252.26 309.059,252.926 307.5,253.5C 306.417,252.635 306.251,251.635 307,250.5C 308.302,249.915 309.469,249.249 310.5,248.5 Z"/></g>
<g><path style="opacity:0.58" fill="#ccb8a1" d="M 89.5,251.5 C 95.4196,251.943 99.753,254.61 102.5,259.5C 96.927,258.561 92.5937,255.894 89.5,251.5 Z"/></g>
<g><path style="opacity:0.574" fill="#ccb8a1" d="M 252.5,252.5 C 256.527,252.281 257.194,253.448 254.5,256C 252.026,258.099 249.359,258.599 246.5,257.5C 248.519,255.81 250.519,254.144 252.5,252.5 Z"/></g>
<g><path style="opacity:0.619" fill="#ccb8a1" d="M 50.5,254.5 C 67.6344,259.823 84.6344,265.656 101.5,272C 102.973,272.71 103.64,273.876 103.5,275.5C 85.7436,269.79 68.0769,263.79 50.5,257.5C 50.5,256.5 50.5,255.5 50.5,254.5 Z"/></g>
<g><path style="opacity:0.616" fill="#ccb8a1" d="M 293.5,254.5 C 295.288,254.215 296.955,254.548 298.5,255.5C 296.847,257.121 294.847,258.288 292.5,259C 277.333,264.5 262.167,270 247,275.5C 245.72,275.387 244.887,274.72 244.5,273.5C 260.82,266.952 277.154,260.619 293.5,254.5 Z"/></g>
<g><path style="opacity:0.645" fill="#ccb8a1" d="M 10.5,270.5 C 26.8865,272.842 43.2198,275.509 59.5,278.5C 59.5,279.5 59.5,280.5 59.5,281.5C 43.184,278.725 26.8507,276.058 10.5,273.5C 10.5,272.5 10.5,271.5 10.5,270.5 Z"/></g>
<g><path style="opacity:0.65" fill="#ccb8a1" d="M 331.5,270.5 C 333.5,270.5 335.5,270.5 337.5,270.5C 337.5,271.5 337.5,272.5 337.5,273.5C 319.149,276.392 300.816,279.392 282.5,282.5C 282.5,281.5 282.5,280.5 282.5,279.5C 299.015,276.805 315.348,273.805 331.5,270.5 Z"/></g>
<g><path style="opacity:0.537" fill="#ccb8a1" d="M 67.5,280.5 C 70.4822,280.104 73.1489,280.771 75.5,282.5C 75.1667,283.5 74.5,284.167 73.5,284.5C 71.5914,283.652 69.5914,283.318 67.5,283.5C 67.5,282.5 67.5,281.5 67.5,280.5 Z"/></g>
<g><path style="opacity:0.563" fill="#ccb8a1" d="M 269.5,281.5 C 271.924,281.192 274.257,281.526 276.5,282.5C 276.291,283.086 275.957,283.586 275.5,284C 273.527,284.495 271.527,284.662 269.5,284.5C 269.5,283.5 269.5,282.5 269.5,281.5 Z"/></g>
<g><path style="opacity:0.633" fill="#ccb8a1" d="M 85.5,283.5 C 94.2017,284.617 102.868,285.95 111.5,287.5C 111.5,288.5 111.5,289.5 111.5,290.5C 102.835,289.167 94.168,287.834 85.5,286.5C 85.5,285.5 85.5,284.5 85.5,283.5 Z"/></g>
<g><path style="opacity:0.634" fill="#ccb8a1" d="M 257.5,283.5 C 258.833,283.5 260.167,283.5 261.5,283.5C 261.5,284.5 261.5,285.5 261.5,286.5C 253.501,287.833 245.501,289.166 237.5,290.5C 237.5,289.5 237.5,288.5 237.5,287.5C 244.33,286.366 250.997,285.032 257.5,283.5 Z"/></g>
<g><path style="opacity:0.581" fill="#ccb8a1" d="M -0.5,298.5 C 1.83333,298.5 4.16667,298.5 6.5,298.5C 6.5,299.5 6.5,300.5 6.5,301.5C 4.16667,301.5 1.83333,301.5 -0.5,301.5C -0.5,300.5 -0.5,299.5 -0.5,298.5 Z"/></g>
<g><path style="opacity:0.659" fill="#ccb8a1" d="M 16.5,298.5 C 49.1667,298.5 81.8333,298.5 114.5,298.5C 114.5,299.5 114.5,300.5 114.5,301.5C 81.4933,301.833 48.4933,301.5 15.5,300.5C 15.8627,299.817 16.1961,299.15 16.5,298.5 Z"/></g>
<g><path style="opacity:0.538" fill="#ccb8a1" d="M 234.5,298.5 C 236.527,298.338 238.527,298.505 240.5,299C 240.957,299.414 241.291,299.914 241.5,300.5C 238.833,301.833 236.167,301.833 233.5,300.5C 233.863,299.817 234.196,299.15 234.5,298.5 Z"/></g>
<g><path style="opacity:0.66" fill="#ccb8a1" d="M 248.5,298.5 C 275.502,298.333 302.502,298.5 329.5,299C 329.957,299.414 330.291,299.914 330.5,300.5C 303.175,301.5 275.841,301.833 248.5,301.5C 248.5,300.5 248.5,299.5 248.5,298.5 Z"/></g>
<g><path style="opacity:0.589" fill="#ccb8a1" d="M 348.5,298.5 C 348.5,299.5 348.5,300.5 348.5,301.5C 345.833,301.5 343.167,301.5 340.5,301.5C 340.5,300.5 340.5,299.5 340.5,298.5C 343.167,298.5 345.833,298.5 348.5,298.5 Z"/></g>
<g><path style="opacity:0.618" fill="#ccb8a1" d="M 109.5,309.5 C 112.247,309.187 114.914,309.52 117.5,310.5C 117.291,311.086 116.957,311.586 116.5,312C 110.536,313.161 104.536,313.994 98.5,314.5C 98.5,313.5 98.5,312.5 98.5,311.5C 102.387,311.354 106.054,310.687 109.5,309.5 Z"/></g>
<g><path style="opacity:0.635" fill="#ccb8a1" d="M 231.5,309.5 C 242.869,310.907 254.202,312.574 265.5,314.5C 265.5,315.5 265.5,316.5 265.5,317.5C 254.164,315.833 242.831,314.166 231.5,312.5C 231.5,311.5 231.5,310.5 231.5,309.5 Z"/></g>
<g><path style="opacity:0.573" fill="#ccb8a1" d="M 86.5,313.5 C 88.1667,313.5 89.8333,313.5 91.5,313.5C 91.5,314.5 91.5,315.5 91.5,316.5C 89.139,316.674 86.8056,317.007 84.5,317.5C 84.5271,315.801 85.1938,314.467 86.5,313.5 Z"/></g>
<g><path style="opacity:0.642" fill="#ccb8a1" d="M 75.5,315.5 C 76.5,315.5 77.5,315.5 78.5,315.5C 78.6399,317.124 77.9733,318.29 76.5,319C 54.5073,322.943 32.5073,326.776 10.5,330.5C 10.5,329.5 10.5,328.5 10.5,327.5C 32.3482,323.805 54.0149,319.805 75.5,315.5 Z"/></g>
<g><path style="opacity:0.621" fill="#ccb8a1" d="M 271.5,316.5 C 279.223,317.211 286.89,318.377 294.5,320C 294.957,320.414 295.291,320.914 295.5,321.5C 294.333,321.833 293.167,322.167 292,322.5C 285.183,321.303 278.35,320.303 271.5,319.5C 271.5,318.5 271.5,317.5 271.5,316.5 Z"/></g>
<g><path style="opacity:0.628" fill="#ccb8a1" d="M 114.5,319.5 C 116.288,319.215 117.955,319.548 119.5,320.5C 118.91,321.799 117.91,322.632 116.5,323C 95.2419,330.8 73.9085,338.3 52.5,345.5C 52.3601,343.876 53.0267,342.71 54.5,342C 74.7151,334.766 94.7151,327.266 114.5,319.5 Z"/></g>
<g><path style="opacity:0.617" fill="#ccb8a1" d="M 228.5,319.5 C 233.863,320.619 239.197,321.953 244.5,323.5C 244.5,324.5 244.5,325.5 244.5,326.5C 240.049,325.851 235.716,324.684 231.5,323C 229.574,322.578 228.574,321.411 228.5,319.5 Z"/></g>
<g><path style="opacity:0.579" fill="#ccb8a1" d="M 301.5,321.5 C 303.977,321.051 305.977,321.717 307.5,323.5C 307.192,324.308 306.692,324.975 306,325.5C 304.644,324.62 303.144,324.286 301.5,324.5C 301.5,323.5 301.5,322.5 301.5,321.5 Z"/></g>
<g><path style="opacity:0.629" fill="#ccb8a1" d="M 310.5,322.5 C 319.473,324.273 328.473,325.94 337.5,327.5C 337.5,328.5 337.5,329.5 337.5,330.5C 328.826,329.11 320.159,327.61 311.5,326C 309.273,325.296 308.94,324.129 310.5,322.5 Z"/></g>
<g><path style="opacity:0.617" fill="#ccb8a1" d="M 249.5,326.5 C 265.956,331.537 281.956,337.537 297.5,344.5C 295.926,345.631 294.259,345.798 292.5,345C 278.462,339.932 264.462,334.765 250.5,329.5C 249.614,328.675 249.281,327.675 249.5,326.5 Z"/></g>
<g><path style="opacity:0.51" fill="#ccb8a1" d="M 119.5,329.5 C 120.5,329.5 121.5,329.5 122.5,329.5C 121.539,332.835 119.206,334.501 115.5,334.5C 115.281,333.325 115.614,332.325 116.5,331.5C 117.739,331.058 118.739,330.391 119.5,329.5 Z"/></g>
<g><path style="opacity:0.538" fill="#ccb8a1" d="M 226.5,329.5 C 230.246,329.627 231.579,331.294 230.5,334.5C 227.649,333.988 226.316,332.321 226.5,329.5 Z"/></g>
<g><path style="opacity:0.607" fill="#ccb8a1" d="M 235.5,334.5 C 243.779,338.975 252.113,343.475 260.5,348C 262.439,348.908 263.439,350.408 263.5,352.5C 260.984,352.245 258.65,351.411 256.5,350C 250.33,346.081 243.997,342.414 237.5,339C 235.963,337.89 235.297,336.39 235.5,334.5 Z"/></g>
<g><path style="opacity:0.612" fill="#ccb8a1" d="M 105.5,337.5 C 108.826,337.967 109.159,339.134 106.5,341C 100.147,345.208 93.4803,348.708 86.5,351.5C 86.33,350.178 86.6634,349.011 87.5,348C 93.7271,344.726 99.7271,341.226 105.5,337.5 Z"/></g>
<g><path style="opacity:0.578" fill="#ccb8a1" d="M 122.5,340.5 C 123.978,340.238 125.311,340.571 126.5,341.5C 120.985,347.698 114.652,352.698 107.5,356.5C 107.351,355.448 107.517,354.448 108,353.5C 113.028,349.301 117.861,344.968 122.5,340.5 Z"/></g>
<g><path style="opacity:0.582" fill="#ccb8a1" d="M 221.5,340.5 C 222.873,340.343 224.207,340.51 225.5,341C 230.675,345.343 235.675,349.843 240.5,354.5C 239.277,355.614 237.944,355.781 236.5,355C 232.833,352 229.167,349 225.5,346C 223.536,344.549 222.203,342.716 221.5,340.5 Z"/></g>
<g><path style="opacity:0.572" fill="#ccb8a1" d="M 37.5,347.5 C 39.288,347.215 40.9547,347.548 42.5,348.5C 40.7962,350.849 38.4629,351.849 35.5,351.5C 35.5271,349.801 36.1938,348.467 37.5,347.5 Z"/></g>
<g><path style="opacity:0.576" fill="#ccb8a1" d="M 305.5,347.5 C 307.591,347.318 309.591,347.652 311.5,348.5C 312.386,349.325 312.719,350.325 312.5,351.5C 308.998,351.924 306.665,350.59 305.5,347.5 Z"/></g>
<g><path style="opacity:0.555" fill="#ccb8a1" d="M 130.5,349.5 C 131.497,349.47 132.164,349.97 132.5,351C 131.559,354.778 129.226,356.944 125.5,357.5C 125.351,356.448 125.517,355.448 126,354.5C 127.707,352.963 129.207,351.296 130.5,349.5 Z"/></g>
<g><path style="opacity:0.583" fill="#ccb8a1" d="M 215.5,349.5 C 218.946,350.612 220.946,352.945 221.5,356.5C 217.427,356.054 215.427,353.72 215.5,349.5 Z"/></g>
<g><path style="opacity:0.602" fill="#ccb8a1" d="M 79.5,352.5 C 80.5,352.5 81.5,352.5 82.5,352.5C 82.719,353.675 82.3857,354.675 81.5,355.5C 75.9549,358.772 70.2882,361.772 64.5,364.5C 62.4311,364.176 62.0977,363.342 63.5,362C 69.0618,359.059 74.3951,355.892 79.5,352.5 Z"/></g>
<g><path style="opacity:0.573" fill="#ccb8a1" d="M 270.5,354.5 C 275.978,356.737 280.978,359.737 285.5,363.5C 284.277,364.614 282.944,364.781 281.5,364C 277.993,361.746 274.327,359.746 270.5,358C 269.316,356.855 269.316,355.688 270.5,354.5 Z"/></g>
<g><path style="opacity:0.547" fill="#ccb8a1" d="M 224.5,359.5 C 225.239,359.369 225.906,359.536 226.5,360C 229.515,363.156 231.848,366.656 233.5,370.5C 231.097,370.607 229.264,369.607 228,367.5C 226.692,365.359 225.192,363.359 223.5,361.5C 223.863,360.817 224.196,360.15 224.5,359.5 Z"/></g>
<g><path style="opacity:0.545" fill="#ccb8a1" d="M 120.5,360.5 C 122.686,360.511 123.519,361.511 123,363.5C 121.285,365.759 119.452,367.926 117.5,370C 116.552,370.483 115.552,370.649 114.5,370.5C 114.351,369.448 114.517,368.448 115,367.5C 117.43,365.578 119.263,363.245 120.5,360.5 Z"/></g>
<g><path style="opacity:0.6" fill="#ccb8a1" d="M 97.5,361.5 C 98.5,361.5 99.5,361.5 100.5,361.5C 100.703,363.39 100.037,364.89 98.5,366C 96.4732,367.879 94.1398,369.046 91.5,369.5C 91.3505,368.448 91.5172,367.448 92,366.5C 94.3284,365.336 96.1618,363.67 97.5,361.5 Z"/></g>
<g><path style="opacity:0.597" fill="#ccb8a1" d="M 250.5,363.5 C 253.935,364.192 255.935,366.192 256.5,369.5C 253.561,369.082 251.228,367.582 249.5,365C 250.056,364.617 250.389,364.117 250.5,363.5 Z"/></g>
<g><path style="opacity:0.637" fill="#ccb8a1" d="M 134.5,380.5 C 137.898,380.18 141.232,380.513 144.5,381.5C 144.291,382.086 143.957,382.586 143.5,383C 127.854,384.229 112.52,387.063 97.5,391.5C 97.2368,397.596 94.0701,400.93 88,401.5C 85.0232,401.012 82.5232,399.678 80.5,397.5C 71.6614,400.506 65.6614,406.34 62.5,415C 65.063,422.565 70.063,427.898 77.5,431C 78.3366,432.011 78.67,433.178 78.5,434.5C 68.5101,431.843 62.1768,425.51 59.5,415.5C 59.9693,411.926 61.1359,408.592 63,405.5C 67.4721,400.862 72.6388,397.196 78.5,394.5C 79.6432,385.261 84.6432,382.094 93.5,385C 94.6184,386.074 95.6184,387.24 96.5,388.5C 109.103,384.914 121.769,382.247 134.5,380.5 Z M 86.5,386.5 C 93.2835,387.116 95.1168,390.449 92,396.5C 89.1026,398.997 86.2693,398.83 83.5,396C 84.9733,395.29 85.6399,394.124 85.5,392.5C 84.5,392.5 83.5,392.5 82.5,392.5C 82.6574,389.682 83.9908,387.682 86.5,386.5 Z"/></g>
<g><path style="opacity:0.636" fill="#ccb8a1" d="M 203.5,380.5 C 219.864,381.028 235.864,383.695 251.5,388.5C 255.684,383.098 260.684,382.264 266.5,386C 267.867,388.672 268.867,391.505 269.5,394.5C 275.361,397.196 280.528,400.862 285,405.5C 289.565,411.865 289.565,418.199 285,424.5C 280.71,429.307 275.544,432.641 269.5,434.5C 269.33,433.178 269.663,432.011 270.5,431C 277.937,427.898 282.937,422.565 285.5,415C 282.339,406.34 276.339,400.506 267.5,397.5C 262.97,402.288 258.137,402.622 253,398.5C 252.105,396.196 251.271,393.862 250.5,391.5C 235.48,387.063 220.146,384.229 204.5,383C 203.748,382.329 203.414,381.496 203.5,380.5 Z M 258.5,386.5 C 262.72,386.427 265.054,388.427 265.5,392.5C 264.5,392.5 263.5,392.5 262.5,392.5C 262.36,394.124 263.027,395.29 264.5,396C 261.731,398.83 258.897,398.997 256,396.5C 253.489,392.2 254.322,388.867 258.5,386.5 Z"/></g>
<g><path style="opacity:0.635" fill="#ccb8a1" d="M 34.5,389.5 C 37.0838,390.048 38.0838,391.715 37.5,394.5C 38.5,394.5 39.5,394.5 40.5,394.5C 40.5,395.5 40.5,396.5 40.5,397.5C 39.5,397.5 38.5,397.5 37.5,397.5C 37.8841,399.665 37.2174,401.332 35.5,402.5C 34.5481,400.955 34.2148,399.288 34.5,397.5C 33.1667,397.5 31.8333,397.5 30.5,397.5C 30.5,396.5 30.5,395.5 30.5,394.5C 31.8333,394.5 33.1667,394.5 34.5,394.5C 34.5,392.833 34.5,391.167 34.5,389.5 Z"/></g>
<g><path style="opacity:0.635" fill="#ccb8a1" d="M 311.5,389.5 C 313.256,390.552 313.923,392.219 313.5,394.5C 314.833,394.5 316.167,394.5 317.5,394.5C 317.5,395.5 317.5,396.5 317.5,397.5C 316.167,397.5 314.833,397.5 313.5,397.5C 313.785,399.288 313.452,400.955 312.5,402.5C 310.783,401.332 310.116,399.665 310.5,397.5C 309.5,397.5 308.5,397.5 307.5,397.5C 307.5,396.5 307.5,395.5 307.5,394.5C 308.5,394.5 309.5,394.5 310.5,394.5C 310.366,392.708 310.699,391.042 311.5,389.5 Z"/></g>
<g><path style="opacity:0.657" fill="#ccb8a1" d="M 172.5,401.5 C 173.822,401.33 174.989,401.663 176,402.5C 180.059,409.285 183.559,416.285 186.5,423.5C 178.167,423.5 169.833,423.5 161.5,423.5C 164.634,415.899 168.301,408.566 172.5,401.5 Z M 173.5,406.5 C 176.392,410.602 179.059,414.935 181.5,419.5C 176.5,420.833 171.5,420.833 166.5,419.5C 169.1,415.299 171.434,410.966 173.5,406.5 Z"/></g>
<g><path style="opacity:0.645" fill="#ccb8a1" d="M 100.5,418.5 C 109.86,416.897 117.694,419.564 124,426.5C 126.287,429.072 127.453,432.072 127.5,435.5C 126.325,435.719 125.325,435.386 124.5,434.5C 118.416,425.719 110.75,423.885 101.5,429C 93.2614,437.962 93.5947,446.628 102.5,455C 108.574,458.356 114.574,458.189 120.5,454.5C 121.167,454.833 121.833,455.167 122.5,455.5C 116.561,461.976 109.228,464.143 100.5,462C 87.6976,457.236 82.5309,448.069 85,434.5C 87.685,426.65 92.8517,421.316 100.5,418.5 Z M 99.5,457.5 C 87.178,451.162 84.3447,441.829 91,429.5C 96.0778,423.208 102.578,420.708 110.5,422C 96.3563,424.785 90.523,433.285 93,447.5C 94.418,451.34 96.5847,454.674 99.5,457.5 Z"/></g>
<g><path style="opacity:0.644" fill="#ccb8a1" d="M 235.5,418.5 C 255.312,417.479 264.479,426.812 263,446.5C 257.341,460.578 247.174,465.411 232.5,461C 229.424,460.089 227.091,458.256 225.5,455.5C 226.167,455.167 226.833,454.833 227.5,454.5C 238.303,459.76 246.469,457.093 252,446.5C 254.09,434.752 249.257,427.752 237.5,425.5C 231.279,426.05 226.612,429.05 223.5,434.5C 222.675,435.386 221.675,435.719 220.5,435.5C 222.312,427.021 227.312,421.355 235.5,418.5 Z M 248.5,457.5 C 254.979,451.552 257.146,444.219 255,435.5C 251.758,427.78 245.925,423.28 237.5,422C 253.506,421.673 261.006,429.506 260,445.5C 257.988,451.344 254.154,455.344 248.5,457.5 Z"/></g>
<g><path style="opacity:0.654" fill="#ccb8a1" d="M 175.5,470.5 C 174.5,470.5 173.5,470.5 172.5,470.5C 164.845,457.194 157.178,443.861 149.5,430.5C 149.709,429.914 150.043,429.414 150.5,429C 166.167,428.333 181.833,428.333 197.5,429C 197.957,429.414 198.291,429.914 198.5,430.5C 190.822,443.861 183.155,457.194 175.5,470.5 Z M 154.5,431.5 C 160.176,431.334 165.843,431.501 171.5,432C 168.541,436.751 165.707,441.584 163,446.5C 159.636,441.77 156.803,436.77 154.5,431.5 Z M 176.5,432.5 C 182.013,431.184 187.68,431.184 193.5,432.5C 190.918,437.333 188.085,442 185,446.5C 182.392,441.603 179.559,436.937 176.5,432.5 Z M 173.5,433.5 C 176.6,438.185 179.6,443.019 182.5,448C 176.833,448.667 171.167,448.667 165.5,448C 168.572,443.353 171.238,438.52 173.5,433.5 Z M 165.5,452.5 C 170.985,451.348 176.651,451.182 182.5,452C 179.541,456.751 176.707,461.584 174,466.5C 171.392,461.603 168.559,456.937 165.5,452.5 Z"/></g>
<g><path style="opacity:0.65" fill="#ccb8a1" d="M 101.5,440.5 C 113.221,443.077 125.054,445.077 137,446.5C 140.176,445.681 143.176,444.348 146,442.5C 152.613,444.859 153.78,448.692 149.5,454C 147.167,454.667 144.833,454.667 142.5,454C 140.963,452.89 140.297,451.39 140.5,449.5C 127.32,448.617 114.32,446.617 101.5,443.5C 101.5,442.5 101.5,441.5 101.5,440.5 Z M 145.5,445.5 C 150.909,448.566 150.576,450.399 144.5,451C 143.156,448.856 143.49,447.023 145.5,445.5 Z"/></g>
<g><path style="opacity:0.651" fill="#ccb8a1" d="M 242.5,440.5 C 243.833,440.5 245.167,440.5 246.5,440.5C 246.5,441.5 246.5,442.5 246.5,443.5C 233.68,446.617 220.68,448.617 207.5,449.5C 207.703,451.39 207.037,452.89 205.5,454C 199.212,456.018 196.046,453.852 196,447.5C 197.085,444.75 199.085,443.083 202,442.5C 204.824,444.348 207.824,445.681 211,446.5C 221.818,445.461 232.318,443.461 242.5,440.5 Z M 201.5,445.5 C 205.457,447.63 205.457,449.63 201.5,451.5C 197.874,449.712 197.874,447.712 201.5,445.5 Z"/></g>
</svg>
